<svg xmlns="http://www.w3.org/2000/svg" xmlns:xlink="http://www.w3.org/1999/xlink" version="1.1" id="&#1057;&#1083;&#1086;&#1081;_1" x="0px" y="0px" viewBox="0 0 100 100" enable-background="new 0 0 100 100" xml:space="preserve" height="100px" width="100px">
<g>
	<path d="M36.3,63.8h27.5V36.3H36.3V63.8z M61.3,58.8H40.5l8.2-8.2l5,5l3.1-3.1l4.4,4.4V58.8z M38.8,38.8h22.5v14.5l-4.4-4.4   L53.8,52l-5-5l-10,10V38.8z"/>
	<path d="M43.8,40c-2.1,0-3.8,1.7-3.8,3.8s1.7,3.8,3.8,3.8s3.8-1.7,3.8-3.8S45.8,40,43.8,40z M43.8,45c-0.7,0-1.3-0.6-1.3-1.3   s0.6-1.3,1.3-1.3s1.3,0.6,1.3,1.3S44.4,45,43.8,45z"/>
	<path d="M67.5,63.8H95V36.3H67.5V63.8z M92.5,58.8H71.8l8.2-8.2l5,5l3.1-3.1l4.4,4.4V58.8z M70,38.8h22.5v14.5l-4.4-4.4L85,52l-5-5   L70,57V38.8z"/>
	<path d="M75,40c-2.1,0-3.8,1.7-3.8,3.8s1.7,3.8,3.8,3.8s3.8-1.7,3.8-3.8S77.1,40,75,40z M75,45c-0.7,0-1.3-0.6-1.3-1.3   s0.6-1.3,1.3-1.3s1.3,0.6,1.3,1.3S75.7,45,75,45z"/>
	<path d="M5,63.8h27.5V36.3H5V63.8z M30,58.8H9.3l8.2-8.2l5,5l3.1-3.1l4.4,4.4V58.8z M7.5,38.8H30v14.5l-4.4-4.4L22.5,52l-5-5   l-10,10V38.8z"/>
	<path d="M12.5,40c-2.1,0-3.8,1.7-3.8,3.8s1.7,3.8,3.8,3.8s3.8-1.7,3.8-3.8S14.6,40,12.5,40z M12.5,45c-0.7,0-1.3-0.6-1.3-1.3   s0.6-1.3,1.3-1.3s1.3,0.6,1.3,1.3S13.2,45,12.5,45z"/>
	<path d="M36.3,32.5h27.5V5H36.3V32.5z M61.3,27.5H40.5l8.2-8.2l5,5l3.1-3.1l4.4,4.4V27.5z M38.8,7.5h22.5V22l-4.4-4.4l-3.1,3.1   l-5-5l-10,10V7.5z"/>
	<path d="M43.8,8.8c-2.1,0-3.8,1.7-3.8,3.8s1.7,3.8,3.8,3.8s3.8-1.7,3.8-3.8S45.8,8.8,43.8,8.8z M43.8,13.8c-0.7,0-1.3-0.6-1.3-1.3   s0.6-1.3,1.3-1.3s1.3,0.6,1.3,1.3S44.4,13.8,43.8,13.8z"/>
	<path d="M67.5,32.5H95V5H67.5V32.5z M92.5,27.5H71.8l8.2-8.2l5,5l3.1-3.1l4.4,4.4V27.5z M70,7.5h22.5V22l-4.4-4.4L85,20.7l-5-5   l-10,10V7.5z"/>
	<path d="M75,8.8c-2.1,0-3.8,1.7-3.8,3.8s1.7,3.8,3.8,3.8s3.8-1.7,3.8-3.8S77.1,8.8,75,8.8z M75,13.8c-0.7,0-1.3-0.6-1.3-1.3   s0.6-1.3,1.3-1.3s1.3,0.6,1.3,1.3S75.7,13.8,75,13.8z"/>
	<path d="M5,32.5h27.5V5H5V32.5z M30,27.5H9.3l8.2-8.2l5,5l3.1-3.1l4.4,4.4V27.5z M7.5,7.5H30V22l-4.4-4.4l-3.1,3.1l-5-5l-10,10V7.5   z"/>
	<path d="M12.5,8.8c-2.1,0-3.8,1.7-3.8,3.8s1.7,3.8,3.8,3.8s3.8-1.7,3.8-3.8S14.6,8.8,12.5,8.8z M12.5,13.8c-0.7,0-1.3-0.6-1.3-1.3   s0.6-1.3,1.3-1.3s1.3,0.6,1.3,1.3S13.2,13.8,12.5,13.8z"/>
	<path d="M36.3,95h27.5V67.5H36.3V95z M61.3,90H40.5l8.2-8.2l5,5l3.1-3.1l4.4,4.4V90z M38.8,70h22.5v14.5l-4.4-4.4l-3.1,3.1l-5-5   l-10,10V70z"/>
	<path d="M43.8,71.3c-2.1,0-3.8,1.7-3.8,3.8s1.7,3.8,3.8,3.8s3.8-1.7,3.8-3.8S45.8,71.3,43.8,71.3z M43.8,76.3   c-0.7,0-1.3-0.6-1.3-1.3s0.6-1.3,1.3-1.3S45,74.3,45,75S44.4,76.3,43.8,76.3z"/>
	<path d="M67.5,95H95V67.5H67.5V95z M92.5,90H71.8l8.2-8.2l5,5l3.1-3.1l4.4,4.4V90z M70,70h22.5v14.5l-4.4-4.4L85,83.2l-5-5l-10,10   V70z"/>
	<path d="M75,71.3c-2.1,0-3.8,1.7-3.8,3.8s1.7,3.8,3.8,3.8s3.8-1.7,3.8-3.8S77.1,71.3,75,71.3z M75,76.3c-0.7,0-1.3-0.6-1.3-1.3   s0.6-1.3,1.3-1.3s1.3,0.6,1.3,1.3S75.7,76.3,75,76.3z"/>
	<path d="M5,95h27.5V67.5H5V95z M30,90H9.3l8.2-8.2l5,5l3.1-3.1L30,88V90z M7.5,70H30v14.5l-4.4-4.4l-3.1,3.1l-5-5l-10,10V70z"/>
	<path d="M12.5,71.3c-2.1,0-3.8,1.7-3.8,3.8s1.7,3.8,3.8,3.8s3.8-1.7,3.8-3.8S14.6,71.3,12.5,71.3z M12.5,76.3   c-0.7,0-1.3-0.6-1.3-1.3s0.6-1.3,1.3-1.3s1.3,0.6,1.3,1.3S13.2,76.3,12.5,76.3z"/>
</g>
</svg>