<svg xmlns="http://www.w3.org/2000/svg" xmlns:xlink="http://www.w3.org/1999/xlink" version="1.1" id="Layer_1" x="0px" y="0px" viewBox="0 0 100 100" enable-background="new 0 0 100 100" xml:space="preserve" height="100px" width="100px">
<g>
	<g>
		<g>
			<polygon fill="#000000" points="47.8,68.8 7.2,68.8 7.2,36.7 61.5,36.7 61.5,38.7 9.2,38.7 9.2,66.8 47.8,66.8    "/>
		</g>
		<g>
			<path fill="#000000" d="M50.5,82.2c-1.6,0-2.9-0.5-2.9-0.5l-1.2-0.4l14.1-20.2L37,53.7l0.7-1.1c0.1-0.2,2.6-4.1,7.1-3.8     c3.5,0.2,16.9,4.5,20.4,5.6c1.8-2.4,3.5-4.5,5-6l0-0.1l0.5-0.4c0.2-0.1,0.3-0.3,0.5-0.4c-0.8-0.5-1.4-1.1-1.9-1.8     c-1.1-1.5-1.5-3.5-1.2-5.4c0.4-1.9,1.4-3.5,3-4.6c0.6-0.4,1.3-0.8,2-1c0.8-0.3,1.6-0.4,2.4-0.4c2.3,0,4.4,1.1,5.7,2.9     c1.8,2.5,1.7,5.9-0.2,8.4c-0.8,1.1-3.1,2.9-3.8,3.4c-1.4,1.2-3.3,3-4.4,5.2c-0.6,1.1-1,2.2-1.4,3.4c1,0.7,2.1,1.3,3.2,1.8     c2.2,1,4.8,1.3,6.7,1.4c0,0,0.3,0,0.8,0c2.1,0,3.5,0.1,4.3,0.4c3,0.9,5.1,3.5,5.2,6.5c0.1,3.1-1.9,5.8-4.9,6.9     c-0.7,0.2-1.5,0.4-2.2,0.4l-0.2,0c-1.8,0-3.6-0.7-5-1.9c-1.5-1.3-2.3-3.1-2.3-5c0-0.9,0.1-1.8,0.4-2.6c-0.2,0-0.4,0-0.6-0.1     l-0.1,0c-2.3-0.3-5.1-0.9-8.3-1.8c-2.1,3-10.1,14.5-12.7,16.8C54.1,81.5,52.4,82.2,50.5,82.2z M49.6,80.1c0.3,0,0.6,0.1,0.9,0.1     c1.4,0,2.7-0.4,3.6-1.3c2.2-1.9,9.1-11.6,12.8-17.1l0.4-0.6l0.7,0.2c3.4,1,6.3,1.6,8.6,1.9l0.1,0c0.3,0,0.6,0.1,0.9,0.1l0.1,0     c0.7,0.2,1.2,0.5,1.5,0.9c0.2,0.4,0.2,0.8,0,1.2l-0.1,0.2c-0.3,0.7-0.4,1.4-0.4,2.1c0,1.4,0.6,2.6,1.7,3.5c1,0.9,2.3,1.4,3.6,1.4     l0.2,0c0.6,0,1.1-0.1,1.6-0.3c2.2-0.7,3.6-2.7,3.5-4.9c-0.1-2.2-1.6-4.1-3.8-4.7c-0.6-0.2-2-0.3-3.7-0.3c-0.5,0-0.8,0-0.8,0     c-2.1-0.1-5-0.5-7.5-1.6c-1.4-0.7-2.8-1.5-4.1-2.4l-0.6-0.4l0.2-0.7c0.5-1.5,1.1-3,1.8-4.4c1.2-2.2,3-4.2,4.5-5.5v-0.1l0.4-0.3     c1.3-1,2.9-2.3,3.4-3c1.4-1.9,1.5-4.3,0.2-6.1c-0.9-1.3-2.4-2-4.1-2c-0.6,0-1.2,0.1-1.8,0.3c-0.5,0.2-1,0.4-1.5,0.8     c-1.2,0.8-1.9,2-2.2,3.4c-0.3,1.4,0,2.7,0.8,3.8c0.4,0.6,1,1.1,1.6,1.4l0.2,0.1c0.4,0.2,0.6,0.6,0.7,1c0.1,0.5-0.1,1.1-0.6,1.6     l-0.1,0.1c-0.2,0.2-0.4,0.4-0.6,0.6l-0.1,0.1c-1.7,1.7-3.6,4-5.7,6.8l-0.4,0.6l-0.7-0.2c-6.3-2-17.6-5.5-20.6-5.7     c-2-0.1-3.5,0.9-4.4,1.8L63.6,60L49.6,80.1z M84,71.8c-1.2,0-2.3-0.4-3.1-1.2c-0.9-0.8-1.4-1.9-1.4-3c-0.1-1.9,1.2-3.6,3-4.2     c0.5-0.2,0.9-0.2,1.4-0.3l0.1,0c2.5,0,4.5,1.8,4.6,4.2c0.1,1.9-1.2,3.6-3,4.2c-0.5,0.2-0.9,0.2-1.4,0.3L84,71.8z M84,65.1     L84,65.1c-0.4,0-0.7,0.1-0.9,0.1c-1,0.4-1.7,1.3-1.7,2.2c0,0.6,0.3,1.2,0.8,1.6c0.5,0.4,1.1,0.7,1.8,0.7c0.4,0,0.7-0.1,0.9-0.1     c1-0.4,1.7-1.3,1.7-2.2C86.5,66.1,85.4,65.1,84,65.1z M75,46.1c-1.4,0-2.7-0.6-3.5-1.7c-0.7-0.9-0.9-2.1-0.7-3.2     c0.2-1.2,0.9-2.2,1.9-2.9c0.4-0.3,0.8-0.5,1.3-0.7c1.9-0.6,3.9,0,5,1.5c0.7,0.9,0.9,2.1,0.7,3.3c-0.2,1.2-0.9,2.2-1.9,2.9     c-0.4,0.3-0.8,0.5-1.3,0.7C76,46,75.5,46.1,75,46.1z M75.5,39.3c-0.3,0-0.6,0-0.9,0.1c-0.3,0.1-0.5,0.2-0.7,0.4     c-0.6,0.4-1,1-1.1,1.7c-0.1,0.6,0,1.2,0.4,1.7c0.6,0.8,1.7,1.1,2.7,0.8c0.3-0.1,0.5-0.2,0.7-0.4c0.6-0.4,1-1,1.1-1.7     c0.1-0.6,0-1.2-0.4-1.7C76.9,39.6,76.2,39.3,75.5,39.3z"/>
		</g>
	</g>
	<g>
		<path fill="#000000" d="M52.2,33.5h-45V19.9h45V33.5z M9.2,31.5h41v-9.6h-41V31.5z"/>
	</g>
	<g>
		<path fill="#000000" d="M73.1,33.5H55.1V19.9h17.9V33.5z M57.1,31.5h13.9v-9.6H57.1V31.5z"/>
	</g>
</g>
</svg>