<svg xmlns="http://www.w3.org/2000/svg" xmlns:xlink="http://www.w3.org/1999/xlink" version="1.1" id="Capa_1" x="0px" y="0px" width="100px" height="100px" viewBox="0 0 100 100" enable-background="new 0 0 100 100" xml:space="preserve">
<path fill="#000000" d="M96.659,76.708H86.058c0.034-0.179,0.054-0.362,0.054-0.55V72.63c0-0.057-0.006-0.113-0.009-0.17h9.595  c1.604,0,2.905-1.536,2.905-3.431V49.127c0-1.896-1.301-3.432-2.905-3.432H83.259V23.132H64.25v-6.349  c0-1.445-0.993-2.617-2.217-2.617H40.397c-1.225,0-2.217,1.172-2.217,2.617v6.349H18.444v22.563H5.267  c-1.605,0-2.906,1.536-2.906,3.432v19.902c0,1.895,1.301,3.431,2.906,3.431h9.448c-0.004,0.057-0.009,0.113-0.009,0.17v3.528  c0,0.188,0.019,0.371,0.053,0.55H4.577c-1.223,0-2.215,0.992-2.215,2.216s0.992,2.215,2.215,2.215h30.018  c1.224,0,2.215-0.991,2.215-2.215s-0.991-2.216-2.215-2.216H23.992c0.034-0.179,0.054-0.362,0.054-0.55V72.63  c0-0.057-0.005-0.113-0.009-0.17h9.595c1.604,0,2.905-1.536,2.905-3.431v-7.96h27.89v7.96c0,1.895,1.301,3.431,2.905,3.431h9.448  c-0.003,0.057-0.009,0.113-0.009,0.17v3.528c0,0.188,0.02,0.371,0.054,0.55H66.643c-1.225,0-2.216,0.992-2.216,2.216  s0.991,2.215,2.216,2.215h30.017c1.224,0,2.216-0.991,2.216-2.215S97.883,76.708,96.659,76.708z M40.847,19.095  c0-1.331,0.914-2.41,2.04-2.41h16.656c1.127,0,2.041,1.079,2.041,2.41v10.712c0,1.331-0.914,2.41-2.041,2.41H42.887  c-1.126,0-2.04-1.079-2.04-2.41V19.095z M33.042,66.2c0,1.745-1.197,3.159-2.675,3.159H8.532c-1.478,0-2.675-1.414-2.675-3.159  V52.156c0-1.744,1.198-3.159,2.675-3.159h21.835c1.478,0,2.675,1.415,2.675,3.159V66.2z M33.632,45.695H21.247V25.935h16.934v6.03  c0,1.446,0.992,2.618,2.217,2.618h7.206c-0.003,0.043-0.006,0.085-0.006,0.129v2.691c0,0.144,0.015,0.284,0.04,0.419H39.87  c-0.933,0-1.689,0.757-1.689,1.69c0,0.933,0.757,1.69,1.689,1.69h9.648v17.064H36.537v-9.14  C36.537,47.231,35.236,45.695,33.632,45.695z M64.427,49.127v9.14H52.321V41.202h10.446c0.933,0,1.689-0.757,1.689-1.69  c0-0.934-0.757-1.69-1.689-1.69H54.68c0.026-0.136,0.041-0.276,0.041-0.419v-2.691c0-0.044-0.004-0.086-0.006-0.129h7.318  c1.224,0,2.217-1.172,2.217-2.618v-6.03h16.206v19.761H67.332C65.728,45.695,64.427,47.231,64.427,49.127z M70.598,69.359  c-1.478,0-2.676-1.414-2.676-3.159V52.156c0-1.744,1.198-3.159,2.676-3.159h21.834c1.479,0,2.676,1.415,2.676,3.159V66.2  c0,1.745-1.197,3.159-2.676,3.159H70.598z"/>
</svg>