<?xml version="1.0" encoding="utf-8"?>
<!-- Generator: Adobe Illustrator 15.1.0, SVG Export Plug-In . SVG Version: 6.00 Build 0)  -->
<!DOCTYPE svg PUBLIC "-//W3C//DTD SVG 1.1//EN" "http://www.w3.org/Graphics/SVG/1.1/DTD/svg11.dtd">
<svg version="1.1" id="Layer_1" xmlns="http://www.w3.org/2000/svg" xmlns:xlink="http://www.w3.org/1999/xlink" x="0px" y="0px"
	 width="267.095px" height="178.206px" viewBox="0 0 267.095 178.206" enable-background="new 0 0 267.095 178.206"
	 xml:space="preserve">
<g>
	<path fill="#001E39" d="M90.686,3.633c1.158,0,2.314,0,3.471,0c7.032,0.755,11.871,3.706,15.963,7.402
		c2.431-9.689,20.339-5.368,15.961,6.016c-5.781,7.635-17.745,9.091-23.365,16.888c-6.603,6.893-11.375,15.615-12.725,27.761
		c0,2.545,0,5.089,0,7.633c1.372,12.124,6.088,20.901,12.725,27.761c5.572,7.922,17.837,9.149,23.365,17.119
		c1.653,5.479-1.525,9.799-5.553,11.104c-5.577,1.144-9.098-1.668-10.643-5.32c-4.72,5.309-13.793,8.898-23.828,6.708
		c-9.972-3.369-16.708-9.972-18.276-21.747c-0.049-2.209,0.001-4.316,0.232-6.246c-14.95-5.253-24.969-15.438-24.984-35.627
		C44.6,48.231,52.45,39.656,63.153,33.937c1.789-0.374,3.066-1.253,4.859-1.619C66.794,14.892,76.014,5.937,90.686,3.633z"/>
	<path fill="#001E39" d="M173.506,3.633c1.154,0,2.312,0,3.468,0c14.657,2.323,23.853,11.292,22.671,28.688
		c2.036,0.51,3.739,1.35,5.552,2.082c11.468,6.352,20.358,16.497,19.201,34.702c-2.224,15.897-11.167,25.076-24.753,29.612
		c0.094,2.066,0.354,3.964,0.23,6.246c-0.934,17.118-20.862,28.193-37.478,18.972c-1.584-1.345-3.353-2.506-4.856-3.934
		c-1.231,7.241-14.423,7.047-15.96,0.232c-0.681-1.713-0.61-4.752,0-6.479c6.176-7.318,17.905-9.083,23.596-16.888
		c6.522-6.973,11.285-15.707,12.493-27.991c0.604-15.333-4.364-25.092-11.105-33.082c-3.431-3.971-7.395-7.412-12.261-9.948
		c-4.48-2.921-10.674-4.133-12.953-9.253c-3.46-11.744,13.877-14.583,16.426-5.552C161.505,7.055,166.649,4.486,173.506,3.633z"/>
	<path fill="#001E39" d="M132.559,38.797c-0.042-0.197,0.09-0.219,0.23-0.232c17.287,0.991,26.375,10.176,27.993,26.836
		c-1.438,16.607-10.38,25.707-27.065,27.068c-16.436-1.457-25.393-10.392-26.837-26.838c1.303-16.047,9.736-24.964,25.216-26.834
		C132.25,38.797,132.405,38.797,132.559,38.797z"/>
	<path fill="#001E39" d="M29.844,142.436c1.618,3.53,0.925,8.887,0.925,13.649c0,4.944,0,10.035,0,14.575
		c-0.2,1.357,1.814,1.473,0.927,2.775c-4.394,0.478-2.777-8.443-2.777-12.722c0-5.373,0-11.214,0-15.731
		c0.146-1.004-1.656-1.26-0.925-2.082c0-0.154,0-0.31,0-0.463C28.447,141.979,29.313,142.291,29.844,142.436z"/>
	<path fill="#001E39" d="M111.043,142.668c0.226,1.46-1.181,1.287-1.158,2.545c0,8.405,0,16.811,0,25.215
		c-0.22,1.448,1.838,1.614,0.928,3.008c-2.482,0.908-3.019-2.049-2.777-4.627c-1.389,2.469-3.483,4.23-6.709,4.859
		c-15.026,2.057-15.259-22.801-1.619-22.441c4.135,0.185,6.642,1.994,8.328,4.627C108.728,151.423,106,141.216,111.043,142.668z
		 M97.394,153.541c-1.433,0.341-2.322,1.226-3.47,1.851c-4.343,4.185-2.564,14.272,2.776,15.963
		c0.592,0.024,1.103,0.131,1.388,0.463c11.142,2.094,12.879-15.028,5.089-18.045c-1.38-0.469-3.159-0.541-5.089-0.461
		c-0.141,0.013-0.274,0.035-0.231,0.23C97.704,153.541,97.548,153.541,97.394,153.541z"/>
	<path fill="#001E39" d="M17.122,173.899c-1.158,0-2.313,0-3.471,0c-5.341-1.291-8.642-4.621-9.716-10.178c0-0.771,0-1.543,0-2.314
		c0.399-1.529,0.849-3.006,1.388-4.395c1.59-2.035,3.261-3.988,5.784-5.09c0.868-0.211,1.634-0.523,2.544-0.695
		c1.682-0.103,2.132-0.016,3.934,0c1.799,0.918,5.432,1.177,4.856,3.701c-2.064,0.49-3.321-1.744-5.552-1.85
		c-14.395-2.062-14.275,21.014,0,18.968c2.283,0.021,3.921-2.717,5.783-1.618C22.276,173.04,19.244,173.016,17.122,173.899z"/>
	<path fill="#001E39" d="M50.203,173.899c-1.233,0-2.468,0-3.701,0c-4.631-1.201-8.957-4.529-9.485-9.948
		c-0.458-4.706,1.692-8.778,5.55-11.335c7.388-3.924,16.108,0.736,17.121,8.097C60.1,168.686,56.103,172.243,50.203,173.899z
		 M45.807,153.309c-1.858,0.61-3.314,1.623-4.627,2.776c-1.36,2.032-2.629,4.157-2.313,7.865c1.014,4.462,3.701,7.25,8.329,8.097
		c7.309-0.016,10.893-3.757,10.642-11.334c-0.9-3.188-2.754-5.419-5.32-6.941c-0.575,0.035-0.96-0.119-1.157-0.461
		c-1.412-0.285-3.143-0.25-4.857-0.23c-0.141,0.014-0.273,0.033-0.233,0.23C46.114,153.309,45.96,153.309,45.807,153.309z"/>
	<path fill="#001E39" d="M129.086,173.899c-1.233,0-2.466,0-3.701,0c-5.871-1.685-9.917-5.197-9.483-13.187
		c1.156-4.78,3.949-7.926,8.559-9.253c4.311-0.835,9.548,0.156,10.643,3.934c-0.361,0.797-0.779,1.535-1.621,1.851
		c-2.676-0.022-3.328-2.07-6.015-2.081c-9.731-0.666-9.819,16.292,0.926,14.575c2.11-0.64,5.654-3.589,6.709,0
		C134.462,172.487,131.575,172.991,129.086,173.899z"/>
	<path fill="#001E39" d="M148.521,173.899c-1.08,0-2.162,0-3.241,0c0-0.077,0-0.154,0-0.23c-3.005-0.388-4.849-1.938-6.014-4.165
		c-0.971-1.491-0.803-4.438-0.23-6.247c0.969-1.499,2.146-2.787,3.932-3.469c1.49-0.67,3.533-0.786,5.783-0.695
		c1.402-0.117,3.312,1.557,3.935,0.695c-0.099-1.984-0.505-3.66-2.082-4.164c-2.979-2.042-8.417,2.141-9.485-1.389
		c0.846-4.122,7.612-3.162,11.336-2.545c5.699,1.473,4.274,10.068,4.396,17.117c-0.097,1.541,1.952,1.985,0.927,3.701
		c-1.315,2.41-4.991,0.627-5.321-1.388C151.849,172.754,150.044,173.186,148.521,173.899z M142.969,164.645
		c-2.017,7.598,11.513,6.436,9.718-0.924C150.36,161.708,144.308,161.875,142.969,164.645z"/>
	<path fill="#001E39" d="M184.378,171.817c-0.193,2.613-4.197,2.052-5.09,0.463c-0.814-4.66,0.745-11.695-1.389-15.037
		c-1.273-1.365-4-2.45-6.707-1.619c-5.895,1.125-3.574,10.46-4.396,16.656c-0.839,1.613-4.652,2.062-5.088-0.232
		c-0.313-1.623,0.938-1.682,1.155-2.775c-0.356-5.349,0.948-12.359-1.155-15.961c0.17-1.219,1.087-1.689,2.08-2.084
		c1.699,0.307,3.057,0.957,3.241,2.776c2.234-2.892,10.185-4.122,13.648-0.694c3.061,3.031,2.559,9.627,2.546,15.731
		C183.181,170.393,184.664,170.219,184.378,171.817z"/>
	<path fill="#001E39" d="M211.212,172.047c-0.479,2.25-4.219,1.875-5.089,0.232c-0.938-3.457-0.254-8.538-0.463-12.725
		c-0.672-3.039-3.706-4.916-7.633-3.932c-5.949,0.992-3.54,10.339-4.396,16.424c-0.613,1.842-4.646,2.362-5.089,0
		c-0.28-1.59,0.843-1.777,1.154-2.775c0-4.396,0-8.791,0-13.186c-0.074-1.393-1.571-1.357-1.154-3.24
		c0.384-0.771,1.005-1.306,1.85-1.619c2.003,0.162,3.222,1.099,3.471,3.008c2.791-4.188,11.84-3.907,14.574,0.231
		c1.974,3.425,1.623,9.173,1.62,14.574C210.12,170.366,211.471,170.403,211.212,172.047z"/>
	<path fill="#001E39" d="M227.639,173.899c-1.233,0-2.468,0-3.702,0c-5.897-1.735-9.994-5.273-9.483-13.418
		c0.811-10.135,17.461-12.527,21.283-3.469C239.628,164.537,234.662,172.917,227.639,173.899z M220.006,157.936
		c-1.261,1.718-1.871,5.049-0.927,7.633c1.823,5.281,11.581,5.271,13.417,0c1.592-6.021-1.556-10.799-8.097-10.178
		c-0.14,0.013-0.273,0.033-0.23,0.231C222.146,155.76,221.244,157.014,220.006,157.936z"/>
	<path fill="#001E39" d="M263.266,172.512c-0.61,1.191-2.856,1.51-4.165,0.693c-3.055-4.039,1.265-15.453-3.932-17.35
		c-3.955-1.409-7.909,0.354-8.793,3.47c-0.968,4.122,0.979,11.157-1.388,13.88c-1.258,0.766-3.669,0.613-4.162-0.693
		c-0.343-1.808,0.562-2.369,1.155-3.24c0-4.396,0-8.791,0-13.186c-0.271-1.271-1.623-1.46-1.155-3.47
		c0.354-0.724,1.153-1.005,1.851-1.39c2.013,0.148,3.168,1.152,3.471,3.008c2.29-3.615,9.68-4.021,13.188-1.156
		c3.482,2.762,2.747,9.745,2.772,15.962C262.461,170.231,263.702,170.533,263.266,172.512z"/>
	<path fill="#001E39" d="M66.396,151.921c1.277,8.746-2.305,22.354,10.178,19.896c2.817-0.883,4.699-2.704,5.321-5.783
		c0.758-4.686-2.085-15.287,2.776-14.344c0.806,1.156-1.021,1.359-0.925,2.545c0,5.553,0,11.104,0,16.658
		c-0.002,1.092,1.771,1.347,0.925,2.545c-2.034,0.834-3.09-1.194-2.776-3.469c-1.809,4.092-12.462,5.234-15.268,0.461
		c-2.317-3.619-1.475-10.4-1.619-16.193c0.115-1.271-1.321-0.994-0.926-2.545C64.798,151.001,65.603,151.518,66.396,151.921z"/>
</g>
</svg>
