<?xml version="1.0" encoding="utf-8"?>
<!-- Generator: Adobe Illustrator 15.1.0, SVG Export Plug-In . SVG Version: 6.00 Build 0)  -->
<!DOCTYPE svg PUBLIC "-//W3C//DTD SVG 1.1//EN" "http://www.w3.org/Graphics/SVG/1.1/DTD/svg11.dtd">
<svg version="1.1" id="Layer_1" xmlns:sketch="http://www.bohemiancoding.com/sketch/ns"
	 xmlns="http://www.w3.org/2000/svg" xmlns:xlink="http://www.w3.org/1999/xlink" x="0px" y="0px" width="22px" height="22px"
	 viewBox="0 0 22 22" enable-background="new 0 0 22 22" xml:space="preserve">
<title>editor_document_file_code_format</title>
<desc>Created with Sketch.</desc>
<path fill="#001E39" d="M14.341,0.846H4.096c0,0-0.445,0-0.445,0.449v19.314c0,0.449,0.445,0.449,0.445,0.449h13.81
	c0,0,0.445,0,0.445-0.449V4.888L14.341,0.846z M14.675,2.372l2.157,2.148h-2.157V2.372z M17.434,20.141H4.568V1.765h9.188v2.756
	c0,0.919,0.918,0.919,0.918,0.919h2.758v14.701H17.434z"/>
<g>
	<path fill="#001E39" d="M10.573,16.723v-1.199C9.877,15.51,9.17,15.295,8.75,14.994l0.288-0.803
		c0.419,0.275,1.043,0.516,1.715,0.516c0.852,0,1.427-0.492,1.427-1.176c0-0.658-0.467-1.066-1.355-1.426
		c-1.223-0.48-1.979-1.044-1.979-2.088c0-0.995,0.708-1.751,1.799-1.931V6.888H11.4v1.163c0.708,0.024,1.199,0.216,1.56,0.42
		l-0.3,0.792c-0.252-0.144-0.744-0.42-1.511-0.42c-0.924,0-1.271,0.552-1.271,1.043c0,0.612,0.444,0.923,1.487,1.368
		c1.235,0.502,1.859,1.116,1.859,2.182c0,0.959-0.659,1.848-1.895,2.039v1.248H10.573z"/>
</g>
</svg>
