<?xml version="1.0" encoding="utf-8"?>
<!-- Generator: Adobe Illustrator 15.1.0, SVG Export Plug-In . SVG Version: 6.00 Build 0)  -->
<!DOCTYPE svg PUBLIC "-//W3C//DTD SVG 1.1//EN" "http://www.w3.org/Graphics/SVG/1.1/DTD/svg11.dtd">
<svg version="1.1" id="Layer_1" xmlns="http://www.w3.org/2000/svg" xmlns:xlink="http://www.w3.org/1999/xlink" x="0px" y="0px"
	 width="150px" height="150px" viewBox="0 0 150 150" enable-background="new 0 0 150 150" xml:space="preserve">
<g opacity="0.1">
	<path fill="#FFFFFF" d="M118.458,149.997h1.726c0-16.44,13.376-29.817,29.817-29.817v-1.726
		C132.605,118.454,118.458,132.603,118.458,149.997z"/>
	<path fill="#FFFFFF" d="M121.865,149.997h1.726c0.003-14.563,11.849-26.409,26.409-26.409v-1.726
		C134.49,121.863,121.869,134.484,121.865,149.997z"/>
	<path fill="#FFFFFF" d="M125.273,149.997h1.726c0.003-12.682,10.318-23.001,23.001-23.001v-1.725
		C136.367,125.271,125.277,136.361,125.273,149.997z"/>
	<path fill="#FFFFFF" d="M128.685,149.997h1.726c0-10.805,8.788-19.593,19.589-19.593v-1.726
		C138.245,128.679,128.685,138.242,128.685,149.997z"/>
	<path fill="#FFFFFF" d="M132.093,149.997h1.726c0-8.927,7.258-16.185,16.181-16.185v-1.726
		C140.125,132.087,132.093,140.12,132.093,149.997z"/>
	<path fill="#FFFFFF" d="M135.501,149.997h1.726c0-7.046,5.729-12.773,12.773-12.773v-1.726
		C142.003,135.498,135.501,142.001,135.501,149.997z"/>
	<path fill="#FFFFFF" d="M138.909,149.997h1.727c0-5.165,4.2-9.365,9.364-9.365v-1.726
		C143.885,138.906,138.909,143.882,138.909,149.997z"/>
	<path fill="#FFFFFF" d="M142.317,149.997h1.726c0-3.287,2.67-5.957,5.957-5.957v-1.726
		C145.762,142.314,142.317,145.76,142.317,149.997z"/>
	<path fill="#FFFFFF" d="M145.726,149.997h1.726c0-1.406,1.143-2.549,2.549-2.549v-1.726
		C147.644,145.722,145.726,147.641,145.726,149.997z"/>
	<path fill="#FFFFFF" d="M147.451,74.998h-0.004c0-0.905-0.067-1.793-0.134-2.682c0.89,0.069,1.78,0.137,2.683,0.137v-1.726
		c-0.964,0-1.915-0.064-2.859-0.146c-0.07-0.57-0.158-1.134-0.259-1.695c1.028,0.101,2.067,0.158,3.119,0.158v-1.726
		c-1.18,0-2.336-0.088-3.482-0.221c-0.138-0.596-0.291-1.19-0.458-1.777c0,0.002,0,0.003,0.003,0.005
		c1.29,0.184,2.598,0.31,3.937,0.31v-1.726c-1.547,0-3.057-0.162-4.534-0.42c0,0.005,0.004,0.009,0.004,0.014
		c-0.216-0.617-0.425-1.237-0.674-1.839c1.679,0.362,3.417,0.562,5.205,0.562v-1.726c-2.134,0-4.191-0.315-6.153-0.861
		c-0.355-0.727-0.73-1.439-1.135-2.136c2.278,0.833,4.727,1.312,7.288,1.312v-1.726c-3.223,0-6.263-0.797-8.946-2.185
		c0,0.002,0,0.003,0.003,0.005c-2.32-3.283-5.182-6.146-8.465-8.463c-1.386-2.685-2.184-5.722-2.184-8.947h0.006
		c0-9.873-8.036-17.904-17.909-17.906v-0.005c-10.804,0-19.592-8.789-19.592-19.589h-1.726c0,11.752,9.56,21.312,21.314,21.315
		v0.005c8.926,0,16.187,7.259,16.187,16.18h-0.006c0,2.562,0.479,5.01,1.311,7.287c0.007,0.005,0.014,0.01,0.024,0.014
		c-0.714-0.415-1.446-0.8-2.191-1.165c0.01,0.005,0.023,0.01,0.037,0.017c-0.546-1.962-0.863-4.018-0.863-6.152h0.003
		c0-7.993-6.505-14.496-14.497-14.498v-0.002c-12.682-0.003-23-10.32-23-23h-1.726c0,13.629,11.087,24.72,24.722,24.726v0.001
		c7.045,0,12.775,5.729,12.775,12.772h-0.002c0,1.787,0.202,3.525,0.562,5.205c-0.6-0.246-1.214-0.454-1.827-0.668
		c-0.256-1.477-0.418-2.987-0.418-4.536h0.003c0-6.114-4.979-11.088-11.089-11.09V26.41C97.939,26.406,86.094,14.56,86.094,0.002
		h-1.729c0,15.509,12.621,28.128,28.133,28.134v0.002c5.164,0,9.365,4.2,9.365,9.364c0,1.34,0.128,2.65,0.31,3.939
		c0.006,0.001,0.01,0.003,0.014,0.005c-0.586-0.17-1.184-0.32-1.783-0.46c-0.135-1.145-0.223-2.304-0.223-3.484
		c0-4.234-3.445-7.68-7.678-7.682v-0.002c-16.44,0-29.82-13.376-29.82-29.816h-1.726c0,17.392,14.147,31.54,31.542,31.542v0.002
		c3.287,0,5.957,2.671,5.957,5.956c0,1.054,0.057,2.092,0.158,3.119c0.006,0.002,0.01,0.002,0.017,0.003
		c-0.566-0.101-1.136-0.188-1.713-0.262c-0.081-0.945-0.145-1.894-0.145-2.86c0-2.355-1.918-4.271-4.271-4.274v-0.001
		c-18.321,0-33.228-14.905-33.228-33.225h-1.726c0,0.905,0.07,1.795,0.137,2.685C76.797,2.618,75.907,2.55,75,2.55V2.548
		c-0.905,0-1.796,0.07-2.683,0.136c0.067-0.89,0.134-1.779,0.134-2.685h-1.726c0,0.966-0.063,1.915-0.145,2.86
		c-0.569,0.071-1.133,0.158-1.695,0.26c0.101-1.028,0.158-2.066,0.158-3.12h-1.726c0,1.18-0.088,2.337-0.219,3.484
		c-0.597,0.138-1.19,0.289-1.777,0.458c0-0.002,0.003-0.002,0.003-0.003c0.186-1.292,0.31-2.599,0.31-3.939H63.91
		c0,1.549-0.162,3.06-0.418,4.536c0.003-0.002,0.007-0.004,0.013-0.004c-0.617,0.216-1.237,0.425-1.84,0.674
		c0.364-1.68,0.563-3.42,0.563-5.207h-1.726c0,2.134-0.313,4.192-0.859,6.154c-0.728,0.356-1.439,0.731-2.138,1.136
		c0.833-2.279,1.312-4.726,1.312-7.29h-1.726c0,3.225-0.795,6.263-2.184,8.948c0.003,0,0.003,0,0.007-0.003
		c-3.284,2.319-6.145,5.182-8.464,8.465c-2.684,1.385-5.721,2.184-8.944,2.184v-0.003c-10.804,0-19.596-8.789-19.596-19.589h-1.726
		c0,11.753,9.566,21.315,21.321,21.315v0.003c2.562,0,5.007-0.479,7.285-1.312c0.004-0.007,0.01-0.014,0.014-0.023
		c-0.414,0.714-0.799,1.446-1.166,2.19c0.007-0.01,0.01-0.023,0.017-0.037c-1.962,0.546-4.016,0.863-6.149,0.863
		c-12.682-0.003-23.005-10.32-23.005-23h-1.728c0,13.63,11.097,24.723,24.733,24.726c1.786,0,3.523-0.202,5.202-0.563
		c0-0.003,0.004-0.003,0.004-0.007c-0.25,0.6-0.455,1.217-0.671,1.833c-1.476,0.257-2.984,0.418-4.535,0.418
		C22.942,26.406,11.09,14.56,11.09,0.002H9.364c0,15.51,12.628,28.131,28.141,28.134c1.341,0,2.647-0.128,3.938-0.31
		c-0.168,0.583-0.319,1.174-0.455,1.77c-1.145,0.135-2.305,0.223-3.483,0.223c-16.44,0-29.822-13.376-29.822-29.816H5.956
		c0,17.393,14.155,31.542,31.549,31.542c1.055,0,2.093-0.057,3.116-0.158c0.003-0.007,0.003-0.01,0.003-0.017
		c-0.101,0.566-0.189,1.136-0.259,1.712c-0.946,0.081-1.893,0.146-2.86,0.146c-18.321,0-33.23-14.905-33.23-33.225H2.548
		c0,0.905,0.068,1.795,0.135,2.685C1.793,2.618,0.903,2.55,0,2.55v1.726c0.964,0,1.915,0.064,2.858,0.145
		c0.071,0.57,0.158,1.135,0.26,1.696C2.09,6.016,1.052,5.958,0,5.958v1.726c1.18,0,2.336,0.088,3.482,0.222
		C3.621,8.501,3.772,9.095,3.94,9.682c0-0.002,0-0.003-0.003-0.005C2.646,9.493,1.338,9.366,0,9.366v1.726
		c1.547,0,3.058,0.162,4.534,0.42c0-0.005-0.003-0.008-0.003-0.014c0.216,0.617,0.425,1.237,0.674,1.839
		C3.526,12.975,1.787,12.774,0,12.774V14.5c2.134,0,4.19,0.315,6.152,0.861c0.357,0.726,0.73,1.439,1.136,2.135
		C5.009,16.665,2.562,16.186,0,16.186v1.727c3.223,0,6.263,0.797,8.946,2.184c0-0.001,0-0.003-0.003-0.005
		c2.318,3.283,5.183,6.146,8.467,8.463c1.387,2.685,2.188,5.722,2.188,8.947h-0.004C19.595,48.305,10.8,57.093,0,57.093v1.726
		c11.751,0,21.321-9.563,21.321-21.318h0.003c0-2.562-0.479-5.01-1.311-7.287c-0.007-0.005-0.014-0.01-0.024-0.013
		c0.715,0.415,1.446,0.799,2.191,1.165c-0.01-0.005-0.024-0.01-0.037-0.017c0.546,1.962,0.863,4.018,0.863,6.152
		c-0.003,12.682-10.329,23-23.006,23v1.726c13.63,0,24.729-11.091,24.732-24.726c0-1.787-0.202-3.525-0.562-5.204
		c0.596,0.246,1.211,0.453,1.827,0.668c0.256,1.477,0.417,2.987,0.417,4.536C26.41,52.063,14.557,63.909,0,63.909v1.728
		c15.511,0,28.137-12.623,28.14-28.136c0-1.34-0.128-2.649-0.31-3.939c-0.007-0.002-0.01-0.003-0.014-0.005
		c0.586,0.17,1.184,0.32,1.783,0.46c0.135,1.144,0.223,2.304,0.223,3.484c0,16.44-13.379,29.818-29.822,29.818v1.726
		c17.394,0,31.548-14.15,31.548-31.544c0-1.054-0.057-2.092-0.158-3.118c-0.007-0.002-0.01-0.002-0.017-0.004
		c0.566,0.102,1.136,0.189,1.712,0.262c0.081,0.945,0.145,1.895,0.145,2.86c0,18.321-14.908,33.227-33.23,33.227v1.726
		c0.905,0,1.797-0.069,2.683-0.136c-0.067,0.889-0.135,1.779-0.135,2.684h0.006c0,0.906,0.069,1.796,0.137,2.684
		c-0.89-0.067-1.779-0.134-2.685-0.134v1.726c0.966,0,1.915,0.064,2.86,0.145c0.07,0.57,0.158,1.133,0.259,1.696
		c-1.028-0.101-2.066-0.159-3.119-0.159v1.726c1.18,0,2.337,0.088,3.484,0.219c0.138,0.597,0.288,1.19,0.458,1.776
		c-0.002,0-0.002-0.003-0.003-0.003c-1.292-0.185-2.599-0.31-3.939-0.31v1.726c1.549,0,3.059,0.162,4.536,0.418
		c-0.002-0.003-0.003-0.007-0.003-0.013c0.215,0.617,0.424,1.237,0.674,1.84c-1.68-0.364-3.419-0.562-5.206-0.562v1.726
		c2.134,0,4.191,0.313,6.153,0.859c0.355,0.729,0.731,1.439,1.136,2.137c-2.279-0.833-4.726-1.311-7.29-1.311v1.726
		c3.224,0,6.263,0.796,8.948,2.185c0-0.003,0-0.003-0.004-0.007c2.319,3.284,5.181,6.145,8.466,8.465
		c1.388,2.683,2.188,5.721,2.188,8.947h-0.007c0,9.87,8.032,17.903,17.909,17.907l0,0c10.802,0,19.59,8.788,19.59,19.589h1.726
		c0-11.752-9.563-21.312-21.313-21.315l0,0c-8.926,0-16.187-7.261-16.187-16.181h0.007c0-2.562-0.479-5.01-1.312-7.288
		c-0.006-0.003-0.013-0.01-0.023-0.014c0.714,0.415,1.446,0.799,2.191,1.167c-0.01-0.007-0.024-0.01-0.037-0.017
		c0.546,1.962,0.863,4.019,0.863,6.152H23.01c0,7.992,6.505,14.499,14.501,14.499v-0.004c12.676,0.008,22.995,10.323,22.995,23.001
		h1.726c0-13.629-11.09-24.723-24.724-24.726v0.003c-7.045-0.003-12.772-5.731-12.772-12.773h0.003c0-1.787-0.202-3.526-0.563-5.205
		c0.597,0.246,1.212,0.452,1.827,0.667c0.256,1.477,0.418,2.987,0.418,4.538h-0.004c0,6.115,4.979,11.091,11.094,11.091v-0.004
		c14.558,0.007,26.402,11.853,26.402,26.409h1.727c0-15.51-12.621-28.131-28.132-28.134v0.003c-5.164-0.003-9.361-4.204-9.361-9.365
		c0-1.342-0.128-2.65-0.31-3.941c-0.006,0-0.01-0.003-0.013-0.003c0.586,0.169,1.184,0.32,1.783,0.458
		c0.135,1.146,0.223,2.306,0.223,3.486c0,4.233,3.444,7.682,7.682,7.682v-0.003c16.435,0.003,29.811,13.376,29.811,29.817h1.726
		c0-17.391-14.147-31.543-31.54-31.543v0.004c-3.287-0.004-5.953-2.673-5.953-5.957c0-1.056-0.058-2.094-0.158-3.118
		c-0.007-0.003-0.01-0.003-0.017-0.003c0.566,0.101,1.136,0.188,1.712,0.259c0.081,0.947,0.145,1.895,0.145,2.862
		c0,2.356,1.918,4.274,4.274,4.274v-0.003c18.316,0.003,33.219,14.906,33.219,33.225h1.726c0-0.907-0.067-1.796-0.135-2.683
		c0.891,0.067,1.78,0.134,2.684,0.134v0.003c0.905,0,1.795-0.07,2.683-0.138c-0.068,0.889-0.135,1.779-0.135,2.686h1.726
		c0-0.967,0.064-1.915,0.145-2.861c0.569-0.071,1.133-0.159,1.695-0.26c-0.101,1.028-0.158,2.066-0.158,3.121h1.726
		c0-1.179,0.088-2.339,0.219-3.485c0.597-0.138,1.19-0.286,1.777-0.458c0,0.003-0.003,0.003-0.003,0.003
		c-0.186,1.291-0.31,2.599-0.31,3.94h1.726c0-1.551,0.161-3.06,0.417-4.537c-0.003,0.003-0.006,0.003-0.013,0.003
		c0.617-0.216,1.237-0.425,1.84-0.674c-0.364,1.681-0.563,3.422-0.563,5.208h1.726c0-2.134,0.313-4.193,0.86-6.155
		c0.728-0.354,1.439-0.732,2.137-1.136c-0.833,2.279-1.311,4.726-1.311,7.291h1.726c0-3.226,0.795-6.263,2.184-8.95
		c-0.003,0-0.003,0-0.007,0.003c3.284-2.319,6.146-5.181,8.464-8.465c2.683-1.385,5.721-2.185,8.947-2.185v0.004
		c9.871,0,17.904-8.037,17.905-17.911h0.003c0-10.804,8.788-19.592,19.589-19.592V91.18c-11.753,0-21.315,9.563-21.315,21.318
		h-0.004c0,8.923-7.261,16.185-16.179,16.185v-0.003c-2.562,0-5.01,0.479-7.288,1.312c-0.004,0.006-0.01,0.014-0.014,0.023
		c0.415-0.715,0.798-1.446,1.166-2.192c-0.006,0.011-0.01,0.024-0.017,0.037c1.962-0.545,4.018-0.863,6.152-0.863
		c7.992,0,14.496-6.505,14.497-14.499l0,0c0.003-12.682,10.318-23,23.001-23v-1.725c-13.631,0-24.723,11.09-24.727,24.726l0,0
		c0,7.042-5.73,12.773-12.771,12.773c-1.787,0-3.526,0.203-5.205,0.562c0.246-0.597,0.453-1.213,0.667-1.827
		c1.477-0.256,2.986-0.418,4.538-0.418c6.112,0,11.088-4.976,11.089-11.091l0,0C123.595,97.935,135.44,86.089,150,86.089v-1.726
		c-15.51,0-28.131,12.622-28.135,28.134l0,0c0,5.165-4.2,9.365-9.363,9.365l0,0c-1.342,0-2.65,0.128-3.941,0.309
		c0,0.007-0.003,0.011-0.003,0.014c0.168-0.585,0.32-1.182,0.458-1.783c1.146-0.134,2.306-0.223,3.486-0.223l0,0
		c4.233,0,7.68-3.448,7.681-7.683l0,0c0-16.44,13.376-29.816,29.817-29.816v-1.726c-17.393,0-31.542,14.148-31.542,31.542l0,0
		c0,3.284-2.673,5.957-5.956,5.957l0,0c-1.056,0-2.094,0.058-3.119,0.158c-0.003,0.007-0.003,0.011-0.003,0.018
		c0.101-0.567,0.189-1.136,0.26-1.712c0.947-0.081,1.894-0.145,2.862-0.145l0,0c2.354,0,4.271-1.918,4.273-4.275l0,0
		c0-18.321,14.903-33.224,33.225-33.224v-1.726c-0.906,0-1.796,0.067-2.687,0.135C147.384,76.793,147.451,75.903,147.451,74.998z
		 M112.498,34.952v0.002c1.405,0,2.549,1.143,2.549,2.548c0,0.907,0.07,1.795,0.138,2.686c-0.89-0.069-1.78-0.137-2.687-0.137
		v-0.002c-1.406,0-2.549-1.143-2.549-2.548h0.004c0-0.907-0.071-1.795-0.138-2.686C110.704,34.885,111.592,34.952,112.498,34.952z
		 M78.944,9.682c-0.003-0.002-0.003-0.003-0.003-0.005C77.65,9.493,76.342,9.366,75,9.366V9.364
		c-15.51,0-28.13,12.623-28.134,28.137c0,5.164-4.2,9.364-9.362,9.364c-1.342,0-2.649,0.128-3.941,0.311
		c0.165-0.583,0.317-1.174,0.455-1.77c1.146-0.135,2.306-0.223,3.486-0.223c4.231,0,7.68-3.446,7.68-7.682
		c0-16.44,13.375-29.818,29.815-29.818v0.001c1.18,0,2.339,0.088,3.485,0.222C78.624,8.501,78.772,9.095,78.944,9.682z M75,4.274
		v0.001c0.967,0,1.915,0.064,2.861,0.145c0.071,0.57,0.159,1.135,0.26,1.696C77.094,6.016,76.055,5.958,75,5.958V5.957
		c-17.39,0-31.542,14.15-31.542,31.544c0,3.285-2.673,5.956-5.954,5.956c-1.056,0-2.094,0.058-3.119,0.159
		c-0.003,0.007-0.003,0.01-0.003,0.017c0.101-0.566,0.188-1.136,0.26-1.713c0.947-0.081,1.895-0.145,2.862-0.145
		c2.355,0,4.272-1.917,4.272-4.274C41.777,19.18,56.683,4.274,75,4.274z M34.817,34.815c0.89,0.069,1.78,0.137,2.688,0.137
		c0.906,0,1.796-0.071,2.685-0.138c-0.069,0.89-0.137,1.78-0.137,2.687c0,1.405-1.143,2.548-2.548,2.548
		c-0.907,0-1.798,0.071-2.688,0.139c0.071-0.89,0.139-1.78,0.139-2.687C34.956,36.594,34.885,35.706,34.817,34.815z M32.967,49.01
		c1.476-0.257,2.986-0.418,4.538-0.418v0.001c6.112,0,11.088-4.977,11.088-11.092C48.596,22.938,60.445,11.092,75,11.092
		c1.55,0,3.06,0.162,4.537,0.42c-0.003-0.005-0.003-0.008-0.003-0.014c0.216,0.617,0.425,1.237,0.674,1.839
		c-1.682-0.362-3.421-0.563-5.208-0.563c-13.628,0-24.722,11.091-24.726,24.727c0,7.044-5.731,12.774-12.77,12.774v-0.002
		c-1.787,0-3.526,0.202-5.205,0.563c0,0.003-0.003,0.003-0.003,0.007C32.546,50.243,32.751,49.626,32.967,49.01z M31.369,52.825
		c-0.007,0.01-0.01,0.023-0.017,0.037c1.962-0.546,4.018-0.863,6.152-0.863v0.002c7.99,0,14.496-6.506,14.496-14.5
		c0.003-12.682,10.321-23,23-23c2.133,0,4.193,0.315,6.155,0.861c0.354,0.726,0.732,1.439,1.136,2.135
		c-2.279-0.832-4.726-1.312-7.291-1.312v-0.003c-11.751,0-21.314,9.563-21.314,21.318h-0.004c0,8.924-7.261,16.186-16.178,16.186
		v-0.005c-2.562,0-5.01,0.479-7.289,1.312c-0.003,0.006-0.01,0.013-0.013,0.023C30.618,54.302,31.002,53.57,31.369,52.825z
		 M37.508,115.046v0.004c-1.406-0.004-2.545-1.147-2.545-2.549c0-0.907-0.071-1.797-0.139-2.687c0.89,0.071,1.78,0.138,2.687,0.138
		v-0.003c1.402,0.003,2.542,1.146,2.542,2.548h0.003c0,0.907,0.071,1.797,0.136,2.687C39.305,115.114,38.415,115.046,37.508,115.046
		z M41.925,115.36c-0.08-0.947-0.145-1.895-0.145-2.862h-0.003c0-2.356-1.917-4.274-4.272-4.274v0.003
		C19.187,108.22,4.281,93.317,4.281,75.001H4.274c0-0.965,0.064-1.915,0.145-2.86c0.569-0.071,1.132-0.159,1.695-0.259
		c-0.101,1.028-0.158,2.066-0.158,3.119h0.007c0,17.392,14.154,31.544,31.548,31.544v-0.003c3.278,0.003,5.948,2.673,5.948,5.956
		h0.003c0,1.056,0.057,2.094,0.159,3.118c0.006,0.004,0.01,0.004,0.017,0.004C43.071,115.519,42.502,115.431,41.925,115.36z
		 M45.411,115.984c-0.135-1.146-0.223-2.307-0.223-3.486h-0.003c0-4.233-3.449-7.682-7.68-7.682v0.003
		c-16.437-0.007-29.816-13.38-29.816-29.818H7.683c0-1.18,0.087-2.337,0.219-3.483c0.597-0.138,1.189-0.288,1.776-0.458
		c0,0-0.003,0.001-0.003,0.003c-0.185,1.291-0.31,2.599-0.31,3.938h0.007c0,15.511,12.627,28.132,28.14,28.135v-0.003
		c5.159,0.003,9.356,4.204,9.356,9.364h0.003c0,1.342,0.128,2.649,0.311,3.941c0.006,0,0.01,0.002,0.013,0.002
		C46.607,116.273,46.011,116.122,45.411,115.984z M48.596,112.498h-0.003c0-6.115-4.976-11.09-11.088-11.09v0.003
		c-14.56-0.01-26.406-11.854-26.406-26.41H11.09c0-1.548,0.162-3.059,0.417-4.535c-0.003,0.001-0.006,0.003-0.013,0.003
		c0.617-0.215,1.237-0.424,1.842-0.674c-0.366,1.681-0.565,3.42-0.565,5.206h0.008c0,13.63,11.096,24.724,24.73,24.727v-0.003
		c7.037,0.003,12.764,5.731,12.764,12.772h0.003c0,1.787,0.202,3.526,0.562,5.205c-0.6-0.246-1.213-0.455-1.827-0.667
		C48.758,115.559,48.596,114.048,48.596,112.498z M52.83,118.633c0.01,0.006,0.023,0.01,0.037,0.017
		c-0.546-1.962-0.863-4.019-0.863-6.152h-0.003c0-7.993-6.506-14.499-14.496-14.499v0.004
		c-12.679-0.011-22.999-10.324-22.999-23.002H14.5c0-2.134,0.313-4.191,0.859-6.153c0.729-0.355,1.441-0.731,2.139-1.136
		c-0.833,2.279-1.312,4.726-1.312,7.29h0.004c0,11.751,9.563,21.31,21.314,21.316l0,0c8.92,0,16.182,7.261,16.182,16.18l0,0
		c0,2.562,0.479,5.01,1.311,7.288c0.007,0.004,0.014,0.01,0.024,0.014C54.307,119.385,53.575,119,52.83,118.633z M67.716,132.502
		c2.278,0.832,4.726,1.311,7.288,1.311v0.004c11.751,0,21.314-9.564,21.314-21.319h0.003c0-2.562-0.479-5.009-1.312-7.284
		c-0.007-0.007-0.013-0.01-0.023-0.014c0.715,0.415,1.446,0.799,2.191,1.163c-0.01-0.003-0.024-0.01-0.038-0.017
		c0.546,1.961,0.863,4.018,0.863,6.151c-0.003,12.682-10.321,23-22.999,23c-2.134,0-4.19-0.313-6.152-0.859
		C68.495,133.911,68.121,133.199,67.716,132.502z M115.983,104.593c-1.143,0.134-2.302,0.222-3.481,0.222
		c-16.44,0-29.82-13.376-29.82-29.815l0,0c0-4.236-3.444-7.683-7.682-7.683v0.002c-4.237,0-7.682,3.444-7.682,7.682l0,0
		c0.001,4.235,3.447,7.68,7.682,7.68c1.18,0,2.339,0.088,3.485,0.223c0.138,0.597,0.287,1.19,0.458,1.776
		c-0.003-0.003-0.003-0.003-0.003-0.007c-1.291-0.182-2.599-0.31-3.94-0.31c-5.165,0-9.365-4.2-9.365-9.363l0,0
		c0-5.164,4.2-9.363,9.365-9.363v-0.002c5.164,0,9.364,4.2,9.364,9.365l0,0c0,15.509,12.624,28.13,28.137,28.133
		c1.338,0,2.649-0.128,3.937-0.31c0.004-0.007,0.004-0.01,0.007-0.013C116.273,103.396,116.125,103.993,115.983,104.593z
		 M77.687,77.685c-0.89-0.07-1.78-0.138-2.687-0.138c-1.406,0-2.549-1.142-2.549-2.547l0,0c0-1.405,1.143-2.547,2.549-2.547v-0.002
		c1.406,0,2.548,1.143,2.548,2.549l0,0C77.549,75.905,77.619,76.795,77.687,77.685z M75,70.726v0.002
		c-2.356,0-4.275,1.917-4.275,4.273l0,0c0.002,2.356,1.92,4.272,4.275,4.272c0.967,0,1.915,0.064,2.861,0.145
		c0.071,0.57,0.159,1.136,0.26,1.696c-1.028-0.101-2.067-0.159-3.122-0.159c-3.287,0-5.957-2.67-5.957-5.955l0,0
		c0-3.286,2.672-5.955,5.957-5.955v-0.002c3.287,0,5.956,2.672,5.956,5.957l0,0c0,17.393,14.151,31.542,31.545,31.542
		c1.05,0,2.09-0.058,3.117-0.159c0-0.007,0-0.01,0.003-0.017c-0.101,0.566-0.189,1.136-0.262,1.712
		c-0.944,0.081-1.895,0.145-2.858,0.145c-18.321,0-33.228-14.903-33.228-33.223l0,0C79.274,72.643,77.356,70.726,75,70.726z
		 M70.473,138.502c-0.215-0.618-0.424-1.237-0.674-1.841c1.679,0.364,3.418,0.563,5.205,0.563c13.628,0,24.722-11.09,24.725-24.727
		c0-1.786-0.202-3.525-0.562-5.205c0.596,0.246,1.211,0.455,1.827,0.67c0.256,1.477,0.418,2.987,0.418,4.534
		c-0.003,14.563-11.852,26.409-26.407,26.409c-1.548,0-3.058-0.162-4.534-0.418C70.47,138.491,70.473,138.495,70.473,138.502z
		 M71.062,140.319c0,0,0,0.003,0.004,0.003c1.291,0.185,2.6,0.31,3.938,0.31v0.003c15.51,0,28.129-12.625,28.133-28.138
		c0-1.338-0.128-2.649-0.31-3.937c-0.007-0.003-0.01-0.003-0.014-0.007c0.587,0.172,1.183,0.32,1.783,0.462
		c0.135,1.143,0.222,2.302,0.222,3.482c0,16.44-13.375,29.821-29.815,29.821v-0.004c-1.18,0-2.336-0.088-3.482-0.219
		C71.384,141.499,71.232,140.906,71.062,140.319z M75.004,145.726v-0.004c-0.965,0-1.915-0.064-2.858-0.145
		c-0.071-0.569-0.159-1.133-0.26-1.695c1.028,0.101,2.066,0.158,3.118,0.158v0.003c17.39,0,31.542-14.152,31.542-31.546
		c0-1.052-0.057-2.09-0.159-3.118c-0.007,0-0.01,0-0.017-0.003c0.567,0.101,1.136,0.189,1.712,0.263
		c0.081,0.944,0.145,1.895,0.145,2.858C108.227,130.819,93.321,145.726,75.004,145.726z M112.502,115.046L112.502,115.046
		c-0.907,0-1.797,0.071-2.687,0.138c0.07-0.89,0.138-1.78,0.138-2.687c0-0.906-0.071-1.793-0.138-2.683
		c0.89,0.068,1.78,0.135,2.687,0.135c0.906,0,1.793-0.071,2.683-0.138c-0.068,0.89-0.136,1.78-0.136,2.686l0,0
		C115.049,113.903,113.907,115.046,112.502,115.046z M112.502,101.407C97.939,101.404,86.094,89.558,86.094,75H86.09
		c0-6.115-4.975-11.091-11.09-11.091v0.002c-6.115,0-11.09,4.976-11.09,11.09l0,0c0.002,6.115,4.977,11.088,11.09,11.088
		c1.55,0,3.06,0.162,4.537,0.421c-0.003-0.007-0.003-0.01-0.003-0.013c0.216,0.617,0.425,1.237,0.674,1.837
		c-1.682-0.361-3.421-0.562-5.208-0.562c-7.045,0-12.772-5.728-12.772-12.772l0,0c0-7.045,5.729-12.771,12.772-12.771v-0.001
		c7.045,0,12.772,5.729,12.772,12.773h0.003c0,13.631,11.09,24.722,24.726,24.725c1.787,0,3.524-0.202,5.203-0.562
		c-0.246,0.6-0.454,1.213-0.669,1.826C115.56,101.246,114.049,101.407,112.502,101.407z M118.636,97.173
		c0.003-0.01,0.01-0.023,0.018-0.037c-1.962,0.545-4.019,0.862-6.152,0.862c-12.682-0.003-23-10.318-23-22.999h-0.003
		c0-7.995-6.502-14.499-14.498-14.499v0.001c-7.996,0-14.499,6.503-14.499,14.499l0,0C60.504,82.995,67.007,89.497,75,89.497
		c2.133,0,4.193,0.317,6.155,0.863c0.354,0.725,0.732,1.439,1.136,2.134c-2.279-0.833-4.726-1.311-7.291-1.311V91.18
		c-8.924,0-16.182-7.258-16.184-16.179h0.003c0-8.926,7.257-16.184,16.18-16.184v0.002c8.926,0,16.184,7.259,16.184,16.181
		c0,11.754,9.563,21.314,21.318,21.314v0.003c2.561,0,5.008-0.479,7.284-1.312c0.007-0.007,0.011-0.013,0.014-0.023
		C119.385,95.697,119,96.428,118.636,97.173z M121.448,92.407c-2.687,1.386-5.725,2.185-8.946,2.185v-0.003
		C101.698,94.588,92.91,85.8,92.91,75c0-9.874-8.033-17.907-17.909-17.907v-0.002c-9.874,0-17.906,8.032-17.906,17.909h-0.003
		c0,9.873,8.033,17.906,17.91,17.906v0.003c3.226,0,6.263,0.799,8.949,2.184c0,0,0-0.003-0.003-0.003
		c2.319,3.284,5.181,6.145,8.464,8.462c1.385,2.686,2.184,5.724,2.184,8.946h-0.003c0,10.805-8.788,19.593-19.588,19.593v-0.003
		c-3.223,0-6.264-0.796-8.946-2.185c0,0.003,0,0.003,0.003,0.007c-2.319-3.284-5.181-6.146-8.464-8.465
		c-1.386-2.683-2.185-5.721-2.185-8.947l0,0c0-9.87-8.032-17.903-17.901-17.906l0,0c-10.803,0-19.595-8.789-19.595-19.59h-0.003
		c0-3.224,0.797-6.263,2.188-8.948c-0.004,0-0.004,0-0.007,0.004c3.283-2.319,6.146-5.182,8.465-8.465
		c2.683-1.385,5.72-2.185,8.946-2.185v0.005c9.871,0,17.904-8.036,17.904-17.912h0.003c0-10.804,8.788-19.592,19.588-19.592v0.003
		c3.226,0,6.263,0.797,8.949,2.184c0-0.001,0-0.003-0.003-0.005c2.319,3.283,5.181,6.146,8.464,8.463
		c1.385,2.685,2.184,5.722,2.184,8.947h-0.007c0,9.873,8.035,17.906,17.91,17.906v0.005c10.801,0,19.59,8.788,19.591,19.587
		c0,3.223-0.798,6.262-2.184,8.946c0,0,0.002,0,0.002-0.004C126.625,86.262,123.764,89.124,121.448,92.407z M132.504,82.287
		c0.833-2.277,1.31-4.722,1.311-7.286l0,0v0c0-0.001,0-0.001,0-0.001v-0.001c-0.002-11.75-9.562-21.311-21.317-21.312v-0.005
		c-8.923,0-16.183-7.26-16.183-16.181h0.006c0-2.562-0.479-5.01-1.312-7.287c-0.007-0.005-0.013-0.01-0.023-0.013
		c0.715,0.415,1.446,0.799,2.191,1.165c-0.01-0.005-0.024-0.01-0.038-0.017c0.546,1.962,0.863,4.018,0.863,6.152H98
		c0,7.993,6.504,14.498,14.499,14.498v0.002c12.681,0.004,23,10.32,23,23h0.003c-0.002,2.133-0.317,4.189-0.863,6.15
		C133.913,81.508,133.198,81.883,132.504,82.287z M136.664,80.204c0.361-1.679,0.563-3.419,0.563-5.206h-0.003
		c-0.003-13.628-11.09-24.719-24.726-24.723v-0.002c-7.042,0-12.772-5.729-12.772-12.772h0.003c0-1.787-0.202-3.525-0.562-5.204
		c0.596,0.246,1.211,0.453,1.827,0.668c0.256,1.477,0.418,2.987,0.418,4.536h-0.003c0,6.114,4.975,11.089,11.09,11.09v0.001
		c14.562,0.003,26.407,11.851,26.407,26.408h0.003c0,1.548-0.162,3.057-0.421,4.532c0.007,0,0.01-0.004,0.014-0.004
		C137.884,79.745,137.264,79.955,136.664,80.204z M140.317,78.939c0.003,0,0.003,0,0.007-0.003c0.182-1.291,0.312-2.598,0.312-3.938
		h-0.004c0-15.507-12.621-28.127-28.134-28.131v-0.002c-5.164,0-9.365-4.2-9.365-9.364h0.004c0-1.34-0.128-2.649-0.31-3.939
		c-0.007-0.002-0.01-0.003-0.014-0.005c0.587,0.17,1.183,0.32,1.783,0.46c0.135,1.144,0.222,2.304,0.222,3.484h-0.003
		c0,4.234,3.447,7.681,7.682,7.682v0.002c16.439,0,29.816,13.376,29.816,29.816h0.003c0,1.179-0.087,2.336-0.224,3.48
		C141.499,78.62,140.904,78.771,140.317,78.939z M143.885,78.117c0.1-1.027,0.158-2.065,0.158-3.119h-0.004
		c0-17.391-14.147-31.538-31.542-31.539v-0.002c-3.283,0-5.957-2.671-5.957-5.956h0.004c0-1.054-0.057-2.092-0.159-3.118
		c-0.007-0.002-0.01-0.002-0.017-0.004c0.567,0.102,1.136,0.189,1.712,0.262c0.081,0.945,0.145,1.895,0.145,2.86h-0.003
		c0,2.355,1.918,4.273,4.274,4.274v0.002c18.32,0,33.224,14.905,33.224,33.224h0.003c0,0.965-0.064,1.913-0.146,2.856
		C145.01,77.928,144.445,78.016,143.885,78.117z"/>
	<path fill="#FFFFFF" d="M132.093,112.498h-0.003c0,3.223-0.798,6.264-2.184,8.947c0,0,0.002,0,0.002-0.004
		c-3.284,2.319-6.144,5.181-8.46,8.465c-2.687,1.385-5.725,2.185-8.946,2.185v-0.003c-9.874,0-17.907,8.037-17.907,17.913h1.726
		c0-8.926,7.257-16.188,16.181-16.188v0.004c2.561,0,5.008-0.479,7.284-1.312c0.007-0.006,0.011-0.014,0.014-0.024
		c-0.415,0.715-0.799,1.446-1.163,2.192c0.003-0.011,0.01-0.023,0.018-0.037c-1.962,0.545-4.019,0.862-6.152,0.862
		c-7.996,0-14.499,6.506-14.499,14.502h1.726c0-7.045,5.727-12.776,12.773-12.776c1.787,0,3.524-0.203,5.203-0.563
		c-0.246,0.601-0.454,1.213-0.669,1.827c-1.476,0.256-2.986,0.418-4.533,0.418c-6.115,0-11.091,4.979-11.091,11.094h1.726
		c0-5.164,4.2-9.364,9.365-9.364v-0.003c1.338,0,2.649-0.128,3.937-0.31c0.004-0.007,0.004-0.011,0.007-0.014
		c-0.173,0.585-0.321,1.183-0.463,1.783c-1.143,0.134-2.302,0.222-3.481,0.222v0.004c-4.238,0-7.683,3.444-7.683,7.682h1.727
		c0-3.287,2.669-5.956,5.957-5.956v-0.003c1.05,0,2.09-0.058,3.117-0.158c0-0.007,0-0.011,0.003-0.017
		c-0.101,0.566-0.189,1.136-0.262,1.712c-0.944,0.081-1.895,0.145-2.858,0.145v0.004c-2.357,0-4.275,1.917-4.275,4.274h1.726
		c0-1.405,1.143-2.548,2.549-2.548v-0.003c0.906,0,1.793-0.071,2.683-0.138c-0.068,0.89-0.136,1.779-0.136,2.687h1.726
		c0-18.322,14.903-33.225,33.225-33.225v-1.726c-0.906,0-1.796,0.067-2.687,0.134c0.07-0.889,0.138-1.779,0.138-2.683l0,0
		c0-1.405,1.143-2.548,2.549-2.548v-1.726c-2.356,0-4.274,1.918-4.274,4.274l0,0c0,0.964-0.064,1.915-0.146,2.858
		c-0.57,0.071-1.135,0.159-1.695,0.26c0.1-1.028,0.158-2.066,0.158-3.118l0,0c0-3.286,2.67-5.956,5.957-5.956v-1.726
		c-4.236,0-7.683,3.445-7.683,7.682l0,0c0,1.18-0.087,2.336-0.224,3.482c-0.595,0.139-1.189,0.29-1.777,0.459
		c0.003,0,0.003,0,0.007-0.004c0.182-1.291,0.312-2.599,0.312-3.938l0,0c0-5.165,4.2-9.364,9.364-9.364v-1.726
		c-6.115,0-11.091,4.976-11.091,11.09l0,0c0,1.548-0.162,3.058-0.421,4.535c0.007,0,0.01-0.004,0.014-0.004
		c-0.617,0.216-1.237,0.425-1.837,0.674c0.361-1.679,0.563-3.418,0.563-5.205l0,0c0-7.045,5.729-12.772,12.773-12.772v-1.726
		c-7.995,0-14.499,6.503-14.499,14.499l0,0c0,2.134-0.317,4.19-0.863,6.152c-0.725,0.358-1.44,0.732-2.134,1.136
		c0.833-2.278,1.311-4.726,1.311-7.288h0.004c0-8.926,7.258-16.184,16.181-16.184v-1.726
		C140.125,94.588,132.093,102.621,132.093,112.498z"/>
	<path fill="#FFFFFF" d="M37.511,132.09L37.511,132.09c-3.226,0-6.263-0.799-8.949-2.185c0,0,0,0.004,0.003,0.004
		c-2.318-3.284-5.181-6.146-8.464-8.461c-1.388-2.687-2.188-5.724-2.188-8.947h0.006c0-9.874-8.038-17.907-17.913-17.907v1.726
		c8.925,0,16.187,7.258,16.187,16.181h-0.007c0,2.562,0.479,5.009,1.312,7.284c0.007,0.006,0.014,0.01,0.024,0.014
		c-0.715-0.415-1.447-0.799-2.193-1.163c0.01,0.003,0.023,0.01,0.037,0.017c-0.546-1.962-0.863-4.018-0.863-6.152h0.003
		c0-7.997-6.505-14.499-14.5-14.499v1.725c7.043,0,12.773,5.728,12.773,12.773h-0.003c0,1.787,0.202,3.522,0.562,5.201
		c-0.598-0.246-1.211-0.452-1.827-0.667c-0.256-1.477-0.418-2.987-0.418-4.534h0.003c0-6.115-4.978-11.091-11.092-11.091v1.726
		c5.164,0,9.364,4.201,9.364,9.365H9.369c0,1.338,0.129,2.649,0.31,3.938c0.007,0.002,0.01,0.002,0.014,0.006
		c-0.586-0.172-1.183-0.32-1.783-0.461c-0.135-1.143-0.223-2.303-0.223-3.482h0.001c0-4.237-3.446-7.683-7.682-7.683v1.726
		c3.285,0,5.956,2.669,5.956,5.957H5.961c0,1.052,0.058,2.09,0.159,3.118c0.007,0,0.01,0,0.017,0.003
		C5.57,115.521,5,115.434,4.424,115.36c-0.081-0.944-0.145-1.895-0.145-2.858h0.002c0-2.356-1.918-4.275-4.274-4.275v1.726
		c1.405,0,2.548,1.143,2.548,2.549H2.553c0,0.906,0.071,1.793,0.138,2.683c-0.89-0.067-1.779-0.134-2.687-0.134v1.726
		c18.324,0,33.232,14.903,33.232,33.224h1.726c0-0.907-0.071-1.797-0.139-2.686c0.89,0.071,1.78,0.138,2.687,0.138v-0.003
		c1.402,0.003,2.545,1.143,2.545,2.549h1.724c0-2.356-1.917-4.275-4.272-4.275v0.004c-0.967-0.004-1.913-0.064-2.858-0.145
		c-0.071-0.57-0.159-1.137-0.26-1.696c1.028,0.101,2.066,0.159,3.121,0.159v-0.003c3.282,0.003,5.952,2.673,5.952,5.957h1.726
		c0-4.234-3.445-7.683-7.681-7.683v0.004c-1.18,0-2.338-0.088-3.482-0.223c-0.138-0.597-0.286-1.19-0.458-1.776
		c0.003,0.003,0.003,0.003,0.003,0.006c1.291,0.183,2.598,0.311,3.94,0.311v-0.003c5.159,0.003,9.359,4.2,9.359,9.365h1.726
		c0-6.115-4.975-11.091-11.088-11.091v0.004c-1.551-0.004-3.06-0.163-4.534-0.422c0.003,0.006,0.003,0.01,0.003,0.014
		c-0.216-0.618-0.425-1.237-0.674-1.837c1.682,0.36,3.421,0.563,5.208,0.563v-0.003c7.04,0.003,12.768,5.731,12.768,12.773h1.726
		c0-7.993-6.502-14.499-14.496-14.499v0.004c-2.134-0.004-4.192-0.317-6.152-0.863c-0.354-0.725-0.731-1.439-1.136-2.134
		c2.277,0.829,4.723,1.308,7.288,1.312l0,0c8.924,0,16.182,7.261,16.182,16.181h1.727C55.416,140.124,47.383,132.093,37.511,132.09z
		"/>
	<path fill="#FFFFFF" d="M116.772,0.003h-1.726c0,0.906,0.07,1.797,0.136,2.686c-0.888-0.069-1.778-0.137-2.681-0.137V2.55
		c-1.406,0-2.549-1.143-2.549-2.548h-1.726c0,2.355,1.915,4.271,4.271,4.274v0.002c0.967,0,1.915,0.064,2.862,0.145
		c0.071,0.57,0.158,1.134,0.259,1.695c-1.027-0.101-2.064-0.157-3.117-0.158V5.958c-3.287,0-5.957-2.671-5.957-5.956h-1.727
		c0,4.234,3.442,7.68,7.679,7.682v0.002c1.18,0,2.339,0.087,3.485,0.221c0.138,0.597,0.288,1.19,0.459,1.777
		c-0.004-0.002-0.004-0.004-0.004-0.005c-1.291-0.184-2.597-0.31-3.937-0.31V9.366c-5.165,0-9.365-4.2-9.365-9.364h-1.726
		c0,6.114,4.972,11.088,11.087,11.09v0.002c1.551,0,3.062,0.162,4.537,0.42c-0.004-0.005-0.004-0.008-0.004-0.014
		c0.216,0.617,0.425,1.237,0.675,1.839c-1.682-0.362-3.419-0.562-5.204-0.562v-0.002c-7.046,0-12.773-5.729-12.773-12.772h-1.726
		c0,7.993,6.5,14.496,14.495,14.499v0.001c2.133,0,4.194,0.315,6.156,0.861c0.353,0.727,0.731,1.439,1.135,2.136
		c-2.279-0.832-4.726-1.311-7.287-1.312v-0.005c-8.927,0-16.184-7.26-16.184-16.181h-1.726c0,9.873,8.029,17.904,17.906,17.907
		v0.005c3.225,0,6.263,0.797,8.95,2.184c0,0,0-0.003-0.004-0.005c2.32,3.283,5.181,6.146,8.464,8.463
		c1.386,2.685,2.185,5.723,2.185,8.946h-0.006c0,9.875,8.036,17.907,17.91,17.907v-1.726c-8.923,0-16.184-7.259-16.184-16.181h0.006
		c0-2.562-0.479-5.009-1.311-7.286c-0.007-0.005-0.014-0.01-0.023-0.014c0.714,0.415,1.446,0.799,2.191,1.165
		c-0.01-0.005-0.023-0.01-0.037-0.017c0.545,1.962,0.863,4.018,0.863,6.151h-0.003c0,7.995,6.506,14.499,14.499,14.499v-1.726
		c-7.041,0-12.772-5.729-12.772-12.773h0.003c0-1.786-0.202-3.525-0.563-5.204c0.596,0.247,1.212,0.453,1.827,0.668
		c0.256,1.477,0.418,2.987,0.418,4.536h-0.003c0,6.115,4.976,11.091,11.091,11.091v-1.726c-5.164,0-9.364-4.201-9.364-9.365h0.004
		c0-1.339-0.129-2.649-0.312-3.938c-0.007-0.001-0.009-0.003-0.013-0.005c0.587,0.17,1.183,0.32,1.782,0.46
		c0.137,1.145,0.224,2.304,0.224,3.483h-0.003c0,4.236,3.448,7.683,7.682,7.683v-1.726c-3.282,0-5.957-2.672-5.957-5.957h0.004
		c0-1.053-0.058-2.091-0.158-3.118c-0.007-0.001-0.011-0.001-0.018-0.003c0.567,0.101,1.137,0.188,1.713,0.261
		c0.082,0.946,0.146,1.895,0.146,2.86h-0.003c0,2.357,1.918,4.275,4.274,4.275v-1.726c-1.406,0-2.549-1.143-2.549-2.549h0.004
		c0-0.906-0.071-1.794-0.138-2.685c0.89,0.069,1.78,0.137,2.687,0.137v-1.726C131.679,33.228,116.772,18.323,116.772,0.003z"/>
	<path fill="#FFFFFF" d="M120.18,0.003h-1.725c0,17.393,14.15,31.543,31.545,31.543V29.82C133.559,29.82,120.18,16.444,120.18,0.003
		z"/>
	<path fill="#FFFFFF" d="M123.591,0.003h-1.729c0,15.51,12.624,28.131,28.137,28.135v-1.726
		C135.437,26.408,123.591,14.561,123.591,0.003z"/>
	<path fill="#FFFFFF" d="M126.999,0.003h-1.726c0,13.631,11.09,24.723,24.727,24.727v-1.726
		C137.317,23,126.999,12.684,126.999,0.003z"/>
	<path fill="#FFFFFF" d="M130.407,0.003h-1.726c0,11.754,9.563,21.315,21.319,21.315v-1.726
		C139.196,19.592,130.407,10.804,130.407,0.003z"/>
	<path fill="#FFFFFF" d="M133.815,0.003h-1.726c0,9.874,8.033,17.907,17.911,17.907v-1.726
		C141.073,16.184,133.815,8.925,133.815,0.003z"/>
	<path fill="#FFFFFF" d="M137.227,0.003h-1.726c0,7.995,6.502,14.499,14.499,14.499v-1.726
		C142.955,12.776,137.227,7.047,137.227,0.003z"/>
	<path fill="#FFFFFF" d="M140.636,0.003h-1.727c0,6.115,4.977,11.091,11.091,11.091V9.368
		C144.835,9.368,140.636,5.168,140.636,0.003z"/>
	<path fill="#FFFFFF" d="M144.043,0.003h-1.726c0,4.236,3.444,7.683,7.683,7.683V5.96C146.714,5.96,144.043,3.289,144.043,0.003z"/>
	<path fill="#FFFFFF" d="M147.451,0.003h-1.726c0,2.357,1.918,4.275,4.274,4.275V2.552C148.594,2.552,147.451,1.409,147.451,0.003z"
		/>
	<path fill="#FFFFFF" d="M130.407,75.001L130.407,75.001c0-0.002,0-0.002,0-0.002v-0.001c-0.002-9.871-8.032-17.902-17.909-17.903
		V57.09c-3.223,0-6.263-0.798-8.946-2.185c0,0.001,0,0.003,0.003,0.005c-2.319-3.283-5.181-6.146-8.464-8.463
		c-1.385-2.685-2.184-5.722-2.184-8.946h0.007c0-9.874-8.036-17.907-17.913-17.907v-0.003c-9.874,0-17.906,8.033-17.906,17.91
		h-0.003c0,3.224-0.799,6.263-2.184,8.948c0,0,0.003,0,0.003-0.003c-3.283,2.319-6.146,5.182-8.461,8.465
		c-2.687,1.385-5.724,2.185-8.944,2.185V57.09c-9.874,0-17.906,8.036-17.906,17.911h0.003c0,9.872,8.029,17.901,17.903,17.908l0,0
		c3.221,0,6.261,0.799,8.944,2.184c0,0,0-0.003-0.003-0.003c2.319,3.284,5.181,6.145,8.464,8.462
		c1.385,2.686,2.184,5.724,2.184,8.946l0,0c0,9.874,8.036,17.907,17.91,17.907v0.004c9.873,0,17.906-8.034,17.906-17.911h0.003
		c0-9.874-8.036-17.906-17.913-17.906v-0.003c-10.802,0-19.59-8.786-19.591-19.587h0.003c0-10.804,8.788-19.592,19.588-19.592v0.002
		c10.804,0,19.591,8.788,19.591,19.589c0,9.873,8.033,17.906,17.91,17.906v0.003C122.373,92.909,130.405,84.875,130.407,75.001
		L130.407,75.001z M58.82,37.501c0-8.927,7.261-16.184,16.18-16.184v0.003c8.926,0,16.187,7.259,16.187,16.181h-0.007
		c0,2.562,0.479,5.009,1.311,7.286c0.007,0.005,0.013,0.01,0.024,0.014c-0.715-0.415-1.446-0.799-2.191-1.165
		c0.01,0.005,0.023,0.01,0.037,0.017c-0.547-1.962-0.863-4.018-0.863-6.152h0.003c0-7.995-6.505-14.499-14.501-14.499
		c-7.993,0-14.499,6.503-14.499,14.499c0,2.134-0.317,4.191-0.863,6.153c-0.725,0.355-1.439,0.731-2.134,1.137
		c0.833-2.279,1.312-4.727,1.312-7.29H58.82z M88.336,42.705c-0.6-0.247-1.214-0.454-1.828-0.669
		c-0.256-1.477-0.418-2.986-0.418-4.535h0.004c0-6.115-4.979-11.091-11.094-11.091s-11.09,4.976-11.09,11.091
		c0,1.549-0.162,3.059-0.422,4.535c0.007-0.001,0.011-0.003,0.014-0.003c-0.616,0.216-1.237,0.424-1.837,0.674
		c0.361-1.681,0.563-3.42,0.563-5.207c0-7.046,5.73-12.773,12.772-12.773c7.045,0,12.775,5.729,12.775,12.773h-0.003
		C87.772,39.287,87.975,41.026,88.336,42.705z M84.675,41.44c0.007,0.001,0.01,0.003,0.013,0.005c-0.586-0.17-1.183-0.32-1.783-0.46
		c-0.135-1.145-0.223-2.304-0.223-3.484c0-4.236-3.444-7.683-7.682-7.683c-4.234,0-7.682,3.445-7.682,7.683
		c0,1.18-0.088,2.337-0.223,3.484c-0.597,0.138-1.19,0.288-1.776,0.458c0.003-0.001,0.003-0.001,0.006-0.003
		c0.182-1.292,0.31-2.599,0.31-3.939c0-5.164,4.2-9.365,9.365-9.365c5.164,0,9.364,4.201,9.364,9.365
		C84.365,38.841,84.493,40.15,84.675,41.44z M81.115,40.619c0.007,0.001,0.01,0.001,0.017,0.003
		c-0.566-0.101-1.136-0.189-1.712-0.261c-0.081-0.945-0.145-1.895-0.145-2.86c0-2.357-1.918-4.274-4.274-4.274
		s-4.275,1.917-4.275,4.274c0,0.966-0.063,1.915-0.145,2.86c-0.569,0.07-1.136,0.158-1.695,0.259
		c0.101-1.028,0.158-2.066,0.158-3.12c0-3.287,2.673-5.957,5.957-5.957c3.287,0,5.956,2.672,5.956,5.957
		C80.957,38.554,81.014,39.592,81.115,40.619z M77.687,40.186c-0.89-0.07-1.78-0.137-2.687-0.137s-1.796,0.069-2.687,0.136
		c0.071-0.889,0.138-1.779,0.138-2.684c0-1.406,1.143-2.549,2.549-2.549s2.548,1.143,2.548,2.549
		C77.549,38.407,77.619,39.296,77.687,40.186z M37.511,91.183L37.511,91.183c-8.926,0-16.184-7.261-16.184-16.182h-0.003
		c0-8.925,7.257-16.186,16.181-16.186v0.005c2.562,0,5.007-0.479,7.282-1.312c0.007-0.006,0.01-0.013,0.013-0.024
		c-0.415,0.715-0.799,1.447-1.163,2.191c0.003-0.01,0.01-0.023,0.017-0.037c-1.962,0.546-4.016,0.863-6.149,0.863v-0.001
		c-7.996,0-14.499,6.506-14.499,14.5h0.007c0,7.994,6.502,14.5,14.498,14.5v-0.004c2.131,0.002,4.185,0.317,6.144,0.863
		c0.357,0.725,0.731,1.439,1.136,2.134C42.515,91.663,40.071,91.185,37.511,91.183z M37.505,84.363v0.004
		c-5.161-0.005-9.358-4.204-9.358-9.366H28.14c0-5.164,4.2-9.364,9.365-9.364c1.338,0,2.647-0.128,3.935-0.31
		c0.004-0.007,0.004-0.01,0.007-0.014c-0.171,0.587-0.32,1.183-0.462,1.784c-1.141,0.135-2.301,0.223-3.479,0.223
		c-4.237,0-7.683,3.446-7.683,7.682h0.007c0,4.235,3.444,7.684,7.682,7.684v-0.003c1.177,0.002,2.333,0.088,3.474,0.223
		c0.139,0.597,0.291,1.19,0.459,1.776c0-0.003,0-0.003-0.004-0.007C40.148,84.492,38.843,84.363,37.505,84.363z M33.237,75.001
		c0,2.357,1.918,4.276,4.274,4.276v-0.003c0.963,0.002,1.91,0.064,2.851,0.145c0.07,0.57,0.158,1.136,0.26,1.696
		c-1.026-0.101-2.065-0.159-3.116-0.159v0.002c-3.284-0.003-5.95-2.673-5.95-5.956h-0.007c0-3.285,2.67-5.956,5.957-5.956
		c1.051,0,2.09-0.057,3.116-0.158c0-0.007,0-0.01,0.003-0.017c-0.101,0.566-0.189,1.136-0.263,1.712
		c-0.942,0.081-1.893,0.146-2.856,0.146c-2.357,0-4.275,1.917-4.275,4.273H33.237z M40.186,77.685
		c-0.888-0.07-1.777-0.138-2.681-0.138v0.002c-1.403-0.003-2.542-1.145-2.542-2.548h-0.007c0-1.405,1.143-2.548,2.549-2.548
		c0.906,0,1.793-0.071,2.681-0.138c-0.065,0.889-0.133,1.779-0.133,2.685l0,0v0v0l0,0C40.053,75.907,40.12,76.795,40.186,77.685z
		 M37.505,63.911v-0.002c-6.115,0-11.091,4.978-11.091,11.092h0.007c0,6.116,4.976,11.092,11.09,11.092v-0.003
		c1.546,0.002,3.053,0.164,4.525,0.421c0-0.007-0.003-0.01-0.003-0.013c0.216,0.617,0.425,1.237,0.674,1.837
		c-1.679-0.361-3.416-0.562-5.202-0.562v0.003c-7.042-0.005-12.766-5.733-12.766-12.774h-0.007c0-7.043,5.727-12.774,12.773-12.774
		v0.001c1.786,0,3.522-0.202,5.2-0.562c-0.245,0.598-0.453,1.212-0.669,1.827C40.56,63.749,39.051,63.911,37.505,63.911z M41.777,75
		C41.777,56.68,56.68,41.775,75,41.775S108.224,56.68,108.224,75h0.003c0,2.356,1.918,4.273,4.275,4.273l0,0
		c2.356,0,4.273-1.919,4.273-4.275h-0.003c-0.003-2.354-1.918-4.271-4.274-4.271v-0.002c-0.965,0-1.915-0.064-2.858-0.146
		c-0.07-0.569-0.159-1.134-0.26-1.695c1.026,0.101,2.064,0.158,3.118,0.158v0.002c3.287,0,5.957,2.671,5.957,5.956h0.002
		c-0.002,3.284-2.673,5.954-5.956,5.954l0,0c-3.287,0-5.957-2.67-5.957-5.955h-0.004c0-17.393-14.147-31.543-31.541-31.543
		c-17.392,0-31.542,14.149-31.542,31.543l0,0v0v0l0,0c0,17.392,14.149,31.541,31.542,31.541c3.287,0,5.956,2.673,5.956,5.956h0.003
		c0,3.287-2.673,5.957-5.956,5.957s-5.957-2.669-5.957-5.957h-0.003c0-1.052-0.058-2.09-0.158-3.118c-0.007,0-0.01,0-0.017-0.003
		c0.566,0.101,1.136,0.189,1.712,0.263c0.081,0.944,0.145,1.895,0.145,2.858h0.004c0,2.356,1.918,4.275,4.274,4.275
		c2.356,0,4.274-1.918,4.274-4.275h-0.004c0-2.356-1.918-4.274-4.274-4.274C56.68,108.223,41.777,93.32,41.777,75z M125.271,75.001
		h0.002c-0.002,7.043-5.73,12.771-12.771,12.771c-7.046,0-12.773-5.728-12.773-12.772h-0.003c0-13.631-11.09-24.723-24.725-24.727
		v0.002c-13.632,0-24.722,11.091-24.726,24.726l0,0C50.276,88.631,61.367,99.722,75,99.725c7.045,0,12.775,5.731,12.775,12.772
		c0,7.046-5.73,12.773-12.772,12.773c-7.042,0-12.772-5.728-12.772-12.773h-0.003c0-1.786-0.202-3.525-0.563-5.205
		c0.6,0.246,1.214,0.455,1.827,0.67c0.256,1.477,0.418,2.987,0.418,4.534h0.003c0,6.115,4.976,11.091,11.091,11.091
		c6.114,0,11.09-4.976,11.09-11.091s-4.979-11.09-11.094-11.09C60.438,101.404,48.593,89.558,48.593,75l0,0
		C48.596,60.438,60.443,48.593,75,48.593v-0.001C89.562,48.595,101.408,60.442,101.408,75h0.003c0,6.114,4.976,11.089,11.091,11.089
		c6.114,0,11.089-4.976,11.089-11.091h-0.003c-0.003-6.112-4.976-11.087-11.09-11.087v-0.002c-1.547,0-3.057-0.162-4.534-0.42
		c0,0.005,0.003,0.008,0.003,0.014c-0.216-0.617-0.424-1.237-0.674-1.839c1.679,0.362,3.418,0.563,5.205,0.563v0.001
		C119.543,62.229,125.271,67.958,125.271,75.001z M65.326,108.561c-0.006-0.003-0.01-0.003-0.013-0.007
		c0.586,0.172,1.183,0.32,1.783,0.462c0.135,1.143,0.223,2.302,0.223,3.482h0.003c0,4.237,3.448,7.683,7.682,7.683
		s7.682-3.445,7.682-7.683h-0.004c0-4.233-3.444-7.682-7.682-7.682c-16.44,0-29.815-13.376-29.815-29.815
		c0-16.439,13.375-29.818,29.815-29.818S104.816,58.559,104.816,75h0.003c0,4.236,3.445,7.681,7.683,7.681l0,0
		c4.233,0,7.681-3.449,7.681-7.683h-0.003c-0.003-4.233-3.445-7.679-7.682-7.679v-0.002c-1.18,0-2.336-0.088-3.482-0.221
		c-0.138-0.597-0.29-1.19-0.458-1.777c0,0.001,0,0.003,0.003,0.005c1.29,0.184,2.598,0.31,3.938,0.31v0.002
		c5.164,0,9.365,4.2,9.365,9.364h0.002c-0.002,5.163-4.202,9.362-9.363,9.362l0,0c-5.165,0-9.365-4.2-9.365-9.363h-0.004
		c0-15.51-12.62-28.131-28.133-28.135c-15.51,0-28.13,12.622-28.134,28.135l0,0v0v0l0,0c0,15.51,12.623,28.129,28.134,28.132
		c5.164,0,9.364,4.2,9.364,9.364h0.003c0,5.165-4.2,9.365-9.364,9.365c-5.165,0-9.364-4.2-9.364-9.365h-0.004
		C65.636,111.16,65.508,109.849,65.326,108.561z M109.815,72.315c0.89,0.069,1.778,0.136,2.683,0.136v0.002
		c1.405,0,2.549,1.143,2.549,2.548h0.002c-0.002,1.404-1.144,2.546-2.547,2.546l0,0c-1.406,0-2.549-1.142-2.549-2.547h-0.004
		C109.949,74.094,109.882,73.204,109.815,72.315z M72.313,109.814c0.891,0.068,1.78,0.135,2.687,0.135
		c1.406,0,2.548,1.144,2.548,2.548h0.003c0,1.406-1.143,2.549-2.548,2.549c-1.406,0-2.549-1.143-2.549-2.549h-0.003
		C72.452,111.591,72.381,110.705,72.313,109.814z M112.502,91.183V91.18c-8.927,0-16.184-7.258-16.184-16.18
		c0-11.753-9.563-21.315-21.317-21.315v-0.002c-11.752,0-21.314,9.562-21.314,21.317h-0.004c0,11.754,9.563,21.314,21.318,21.314
		v0.003c8.926,0,16.187,7.261,16.187,16.18h-0.003c0,8.927-7.261,16.185-16.18,16.185v-0.003c-8.923,0-16.184-7.258-16.184-16.181
		l0,0c0-2.562-0.479-5.009-1.312-7.284c-0.007-0.007-0.014-0.01-0.023-0.014c0.715,0.415,1.446,0.799,2.191,1.163
		c-0.01-0.003-0.023-0.01-0.037-0.017c0.546,1.961,0.863,4.018,0.863,6.151h0.003c0,7.996,6.506,14.499,14.499,14.499
		c7.993,0,14.498-6.502,14.498-14.499c0-7.993-6.505-14.499-14.501-14.499c-12.681-0.003-23-10.318-23-22.999l0,0
		c0.003-12.681,10.32-22.999,23-22.999v-0.002C87.682,52.003,98,62.32,98,75h0.003c0,7.995,6.503,14.497,14.499,14.497
		c7.992,0,14.497-6.505,14.497-14.499h-0.003c-0.003-7.992-6.502-14.495-14.498-14.496v-0.001c-2.134,0-4.19-0.315-6.152-0.861
		c-0.357-0.727-0.731-1.439-1.136-2.136c2.277,0.833,4.725,1.312,7.288,1.312v0.005c8.924,0,16.182,7.258,16.183,16.179
		C128.68,83.923,121.42,91.183,112.502,91.183z"/>
	<path fill="#FFFFFF" d="M17.909,37.501h0.004c0-9.874-8.04-17.907-17.913-17.907v1.727c8.923,0,16.187,7.259,16.187,16.181h-0.003
		c0,8.926-7.264,16.184-16.184,16.184v1.726C9.873,55.411,17.909,47.378,17.909,37.501z"/>
	<path fill="#FFFFFF" d="M14.5,37.501c0-7.995-6.508-14.499-14.5-14.499v1.726c7.042,0,12.772,5.729,12.772,12.773
		c0,7.045-5.73,12.772-12.772,12.772v1.726C7.992,51.999,14.5,45.497,14.5,37.501z"/>
	<path fill="#FFFFFF" d="M11.09,37.501C11.09,31.386,6.114,26.41,0,26.41v1.726c5.164,0,9.364,4.201,9.364,9.365
		S5.164,46.865,0,46.865v1.726C6.114,48.591,11.09,43.616,11.09,37.501z"/>
	<path fill="#FFFFFF" d="M7.683,37.501c0-4.236-3.449-7.683-7.683-7.683v1.726c3.283,0,5.956,2.672,5.956,5.957
		c0,3.286-2.673,5.956-5.956,5.956v1.726C4.233,45.183,7.683,41.738,7.683,37.501z"/>
	<path fill="#FFFFFF" d="M4.274,37.501c0-2.357-1.918-4.274-4.274-4.274v1.726c1.406,0,2.548,1.143,2.548,2.549
		c0,1.405-1.143,2.548-2.548,2.548v1.726C2.356,41.775,4.274,39.857,4.274,37.501z"/>
	<path fill="#FFFFFF" d="M0.005,118.458v1.726c16.441,0,29.824,13.376,29.824,29.816h1.726
		C31.555,132.606,17.4,118.458,0.005,118.458z"/>
	<path fill="#FFFFFF" d="M0.005,121.866v1.726c14.562,0.003,26.412,11.849,26.412,26.408h1.729
		C28.146,134.49,15.518,121.869,0.005,121.866z"/>
	<path fill="#FFFFFF" d="M0.005,125.274V127c12.682,0.004,23.005,10.319,23.005,23h1.726
		C24.735,136.368,13.641,125.277,0.005,125.274z"/>
	<path fill="#FFFFFF" d="M0.005,128.685v1.727c10.804,0,19.597,8.788,19.597,19.588h1.726
		C21.327,138.245,11.759,128.685,0.005,128.685z"/>
	<path fill="#FFFFFF" d="M0.005,132.093v1.727c8.927,0,16.186,7.257,16.186,16.18h1.726C17.916,140.126,9.882,132.093,0.005,132.093
		z"/>
	<path fill="#FFFFFF" d="M0.005,135.502v1.726c7.045,0,12.772,5.728,12.772,12.772h1.726
		C14.503,142.004,8.001,135.502,0.005,135.502z"/>
	<path fill="#FFFFFF" d="M0.005,138.91v1.726c5.164,0,9.364,4.2,9.364,9.364h1.726C11.095,143.885,6.12,138.91,0.005,138.91z"/>
	<path fill="#FFFFFF" d="M0.005,142.318v1.726c3.287,0,5.956,2.669,5.956,5.956h1.727C7.688,145.763,4.242,142.318,0.005,142.318z"
		/>
	<path fill="#FFFFFF" d="M0.005,145.726v1.726c1.406,0,2.548,1.143,2.548,2.548h1.726C4.279,147.644,2.361,145.726,0.005,145.726z"
		/>
	<path fill="#FFFFFF" d="M37.505,17.909v0.003c9.871,0,17.904-8.037,17.904-17.912h-1.727c0,8.925-7.257,16.186-16.178,16.186
		v-0.003c-8.927,0-16.184-7.26-16.184-16.181h-1.726C19.595,9.875,27.628,17.909,37.505,17.909z"/>
	<path fill="#FFFFFF" d="M37.505,14.5c7.994,0,14.496-6.506,14.496-14.5h-1.726c0,7.044-5.727,12.774-12.77,12.774
		c-7.046,0-12.773-5.729-12.773-12.772h-1.726C23.006,7.996,29.509,14.5,37.505,14.5z"/>
	<path fill="#FFFFFF" d="M37.505,11.092c6.112,0,11.088-4.977,11.088-11.092h-1.726c0,5.164-4.2,9.364-9.362,9.364v0.002
		c-5.165,0-9.365-4.2-9.365-9.364h-1.726C26.414,6.117,31.39,11.092,37.505,11.092z"/>
	<path fill="#FFFFFF" d="M37.505,7.684L37.505,7.684c4.235-0.001,7.68-3.448,7.68-7.684h-1.726c0,3.285-2.67,5.957-5.954,5.957
		v0.001c-3.287,0-5.957-2.671-5.957-5.956h-1.726C29.822,4.237,33.268,7.684,37.505,7.684z"/>
	<path fill="#FFFFFF" d="M37.505,4.276V4.274c2.355,0,4.272-1.918,4.272-4.274h-1.725c0,1.406-1.143,2.548-2.548,2.548V2.55
		c-1.406,0-2.549-1.143-2.549-2.548H33.23C33.23,2.358,35.148,4.276,37.505,4.276z"/>
</g>
</svg>
